<svg id="Layer_1" data-name="Layer 1" xmlns="http://www.w3.org/2000/svg" xmlns:xlink="http://www.w3.org/1999/xlink" viewBox="0 0 412.31 366.49" data-imageid="bicycle-monochromatic" imageName="Bicycle" class="illustrations_image" style="width: 146px;"><defs><linearGradient id="linear-gradient" x1="276.53" y1="203.56" x2="289.03" y2="217.45" gradientUnits="userSpaceOnUse"><stop offset="0.01"/><stop offset="0.13" stop-opacity="0.69"/><stop offset="1" stop-opacity="0"/></linearGradient><linearGradient id="linear-gradient-2" x1="182.96" y1="255.92" x2="242.91" y2="239.95" gradientUnits="userSpaceOnUse"><stop offset="0.01"/><stop offset="1" stop-opacity="0"/></linearGradient><linearGradient id="linear-gradient-3" x1="199.73" y1="191.5" x2="213.54" y2="182.78" xlink:href="#linear-gradient-2"/><linearGradient id="linear-gradient-4" x1="217.92" y1="227.74" x2="219.77" y2="297.8" xlink:href="#linear-gradient"/><linearGradient id="linear-gradient-5" x1="181.26" y1="204.6" x2="176.01" y2="219.72" xlink:href="#linear-gradient-2"/><linearGradient id="linear-gradient-6" x1="190.78" y1="211.69" x2="201.74" y2="236.84" xlink:href="#linear-gradient-2"/><linearGradient id="linear-gradient-7" x1="226.52" y1="215.67" x2="214.02" y2="191.83" xlink:href="#linear-gradient-2"/><linearGradient id="linear-gradient-8" x1="70.32" y1="241.17" x2="90.38" y2="239.94" xlink:href="#linear-gradient-2"/><linearGradient id="linear-gradient-9" x1="82.31" y1="154.15" x2="53.61" y2="139.8" xlink:href="#linear-gradient-2"/><linearGradient id="linear-gradient-10" x1="81.56" y1="107.27" x2="63.27" y2="112.13" xlink:href="#linear-gradient-2"/><linearGradient id="linear-gradient-11" x1="92.95" y1="143.72" x2="97.93" y2="129.6" xlink:href="#linear-gradient-2"/><linearGradient id="linear-gradient-12" x1="169.59" y1="601.25" x2="210.33" y2="306.84" xlink:href="#linear-gradient-2"/><linearGradient id="linear-gradient-13" x1="362.01" y1="313.06" x2="392.88" y2="259.05" gradientUnits="userSpaceOnUse"><stop offset="0.01"/><stop offset="0.91" stop-opacity="0.03"/><stop offset="1" stop-opacity="0"/></linearGradient><linearGradient id="linear-gradient-14" x1="337.99" y1="347.84" x2="374.1" y2="256.18" xlink:href="#linear-gradient-13"/></defs><title>Cycle</title><path d="M419.71,241.32c-.4,14.05-2.8,28.58-8.08,41.58a77.45,77.45,0,0,1-11.38,19.67A63.83,63.83,0,0,1,391,312l0,0a88,88,0,0,1-18.66,11.25c-4,1.85-8,3.54-12.09,5.21-3.32,1.36-6.64,2.72-9.92,4.13-31.41,13.58-59.74,33.67-91.51,46.37C198.51,403,125.69,397.24,73.5,358.7a158.73,158.73,0,0,1-31.81-31.44C11.32,287.53-1.22,234,13.86,186.36,19.45,168.74,28.64,152,42,139.23c14.8-14.12,33.87-22.72,51.39-33.3A248.84,248.84,0,0,0,167,37.82c11.13-15.59,38-10.73,57-8.43,5.21.62,10.47,1.29,15.42,3,15,5.19,25.1,19,33.62,32.44s16.39,31.23,30.59,38.33c15.38,7.69,34.25,2.84,50.63,8.08,11.55,3.7,21,12.17,28.83,21.41C408.39,162.42,420.82,202.23,419.71,241.32Z" transform="translate(-7.47 -26.82)" fill="#509a4f" opacity="0.18" style="isolation:isolate" class="target-color"/><rect x="268.68" y="204.02" width="19.47" height="3.26" rx="1.63" fill="#509a4f" class="target-color"/><rect x="268.68" y="204.02" width="19.47" height="3.26" rx="1.63" fill="url(#linear-gradient)"/><path d="M206.12,211.69s27-2.36,32.74,2.42-5.76,66.51-5.76,66.51l-5.31-.54-2.7-49.63-20-1Z" transform="translate(-7.47 -26.82)" fill="#faaf90"/><path d="M206.12,211.69s27-2.36,32.74,2.42-5.76,66.51-5.76,66.51l-5.31-.54-2.7-49.63-20-1Z" transform="translate(-7.47 -26.82)" fill="url(#linear-gradient-2)"/><polygon points="207.75 183.05 212.07 183.36 206.83 194.47 193.93 187.7 207.75 183.05" fill="#3e3e54"/><polygon points="207.75 183.05 212.07 183.36 206.83 194.47 193.93 187.7 207.75 183.05" fill="url(#linear-gradient-3)"/><polygon points="226.57 253.91 219.7 253.98 219.6 245.04 227.54 244.7 226.57 253.91" fill="#509a4f" class="target-color"/><path d="M226.45,281.54a4.73,4.73,0,0,0-.14,1.68l.1,2.62a3.36,3.36,0,0,0,.35,1.61,3.25,3.25,0,0,0,2.4,1.13,66.71,66.71,0,0,0,8.57,1,1.45,1.45,0,0,0,1.33-.44,1.16,1.16,0,0,0,0-.95c-.57-1.69-2.78-2.2-3.77-3.68a4.41,4.41,0,0,1-.63-2.52,2.38,2.38,0,0,0-.09-1c-.26-.65-1.08-.86-1.78-.93C231.25,279.92,227.11,279.64,226.45,281.54Z" transform="translate(-7.47 -26.82)" fill="#3e3e54"/><circle cx="281.36" cy="261.71" r="33.68" fill="none" stroke="#3e3e54" stroke-miterlimit="10" stroke-width="4.11"/><circle cx="142.48" cy="261.71" r="33.68" fill="none" stroke="#3e3e54" stroke-miterlimit="10" stroke-width="4.11"/><path d="M207.82,291.92a1.76,1.76,0,0,1-.45-.07,1.64,1.64,0,0,1-1.12-1.08l-.15-.49a1.68,1.68,0,0,1-1.56,1l-54.62-1.12a1.64,1.64,0,0,1-1.22-2.71l41.67-48.73a1.63,1.63,0,0,1,1.57-.54,1.65,1.65,0,0,1,1.24,1.11l15.45,48.11,65.94-56.26a1.64,1.64,0,0,1,2.67.87l13.5,57.71a1.65,1.65,0,0,1-1.23,2,1.63,1.63,0,0,1-2-1.23l-12.89-55.08-65.77,56.11A1.63,1.63,0,0,1,207.82,291.92Zm-54.36-5L204.61,288a1.65,1.65,0,0,1,.83.25L191,243.12Z" transform="translate(-7.47 -26.82)" fill="#509a4f" class="target-color"/><path d="M207.82,291.92a1.76,1.76,0,0,1-.45-.07,1.64,1.64,0,0,1-1.12-1.08l-.15-.49a1.68,1.68,0,0,1-1.56,1l-54.62-1.12a1.64,1.64,0,0,1-1.22-2.71l41.67-48.73a1.63,1.63,0,0,1,1.57-.54,1.65,1.65,0,0,1,1.24,1.11l15.45,48.11,65.94-56.26a1.64,1.64,0,0,1,2.67.87l13.5,57.71a1.65,1.65,0,0,1-1.23,2,1.63,1.63,0,0,1-2-1.23l-12.89-55.08-65.77,56.11A1.63,1.63,0,0,1,207.82,291.92Zm-54.36-5L204.61,288a1.65,1.65,0,0,1,.83.25L191,243.12Z" transform="translate(-7.47 -26.82)" fill="url(#linear-gradient-4)"/><rect x="165.86" y="206.62" width="26.5" height="8.33" rx="3.74" fill="#3e3e54"/><rect x="165.86" y="206.62" width="26.5" height="8.33" rx="3.74" fill="url(#linear-gradient-5)"/><path d="M214,222.84s24.84,10.8,27.62,17.74-36.8,55.71-36.8,55.71l-4.4-3,21.3-44.9L204.58,238Z" transform="translate(-7.47 -26.82)" fill="#faaf90"/><path d="M175.72,200.47s-2.78,3.39-3.24,13.57,2.16,16.67,10.49,21.14,21.76,6.18,21.76,6.18l13-20.53-14.81-8.17Z" transform="translate(-7.47 -26.82)" fill="#3e3e54"/><path d="M175.72,200.47s-2.78,3.39-3.24,13.57,2.16,16.67,10.49,21.14,21.76,6.18,21.76,6.18l13-20.53-14.81-8.17Z" transform="translate(-7.47 -26.82)" fill="url(#linear-gradient-6)"/><path d="M252.26,206.17l1.54,18.06,24.54,5.24s1.85-2.93,6.63-.15.62,7.41-1.85,7.56-6.33-1.85-6.33-1.85-26.69,1.23-28.7-1.39-7.1-25.46-7.1-25.46Z" transform="translate(-7.47 -26.82)" fill="#faaf90"/><path d="M264.71,157.53a6.69,6.69,0,0,0-2.94-2,9.3,9.3,0,0,0-2.36-.29,29.34,29.34,0,0,0-4.09.08c-2.87.34-5.61,1.49-8.49,1.75a13.7,13.7,0,0,1-6.48-1,26.65,26.65,0,0,0-4.14-1.73,10.26,10.26,0,0,0-5.26.43,5.91,5.91,0,0,0-2.65,1.4c-1.45,1.54-1.12,4.08-.13,6,2,3.77,6.18,6.08,10.43,6.55,3.06.34,6.16-.16,9.24,0a4.64,4.64,0,0,1,1.95.45c.48.26.87.67,1.33,1,1.34.91,3.08.9,4.7.85a13,13,0,0,0,3.52-.43c.71-.22,1.39-.57,2.11-.76,1.79-.47,4.68.25,5.39-2a11,11,0,0,0-.11-6.77A10.26,10.26,0,0,0,264.71,157.53Z" transform="translate(-7.47 -26.82)" fill="#3e3e54"/><path d="M265.35,174.26c0,.75.25,1.48.32,2.23a.38.38,0,0,1-.06.3.39.39,0,0,1-.26.09,4.31,4.31,0,0,0-2.18.42c-.75.53-1,1.59-1.69,2.16a2.79,2.79,0,0,1-2,.41c-.71-.09-1.4-.31-2.11-.34a7.21,7.21,0,0,0-3.81,1.18,17.78,17.78,0,0,1-3.59,1.81,4,4,0,0,1-3.81-.61,4.55,4.55,0,0,1-1.18-2,2.87,2.87,0,0,1-.2-1.35,3.21,3.21,0,0,1,.65-1.32,6.71,6.71,0,0,1,1.24-1.46c.4-.33.87-.57,1.28-.89a10.06,10.06,0,0,0,1.18-1.26c1.45-1.63,3.35-2.8,4.81-4.42.45-.5.13.14.61-.33,1.14-1.09,4.65-1.54,6.23-1.68s1.92-1.15,3.37-.52c1.25.55,2.68,1.49,2.43,3S265.32,172.64,265.35,174.26Z" transform="translate(-7.47 -26.82)" fill="#faaf90"/><rect x="249.95" y="166.82" width="18.62" height="2.58" rx="1.29" transform="translate(-32.51 20.25) rotate(-9.9)" fill="#509a4f" class="target-color"/><path d="M239.46,171.83a58.6,58.6,0,0,0-28.76,2.3,91.12,91.12,0,0,0-25.63,13.64c-3.61,2.66-7.24,5.72-8.77,9.94a6.54,6.54,0,0,0-.31,4.18,7.66,7.66,0,0,0,1.44,2.42,31.31,31.31,0,0,0,9.28,7.81,21.32,21.32,0,0,0,8.11,2.7,29.6,29.6,0,0,0,6.58-.29c5.12-.64,10.31-1.54,14.86-4,2.6-1.38,5-3.24,7.63-4.45,2.45-1.1,5.16-1.66,7.42-3.11a21.4,21.4,0,0,0,5.16-5.36l5.35-7a46.82,46.82,0,0,0,4.38-6.47c1.09-2.08,3.55-6.53,2.48-9S241.81,172.27,239.46,171.83Z" transform="translate(-7.47 -26.82)" fill="#509a4f" class="target-color"/><path d="M239.46,171.83a58.6,58.6,0,0,0-28.76,2.3,91.12,91.12,0,0,0-25.63,13.64c-3.61,2.66-7.24,5.72-8.77,9.94a6.54,6.54,0,0,0-.31,4.18,7.66,7.66,0,0,0,1.44,2.42,31.31,31.31,0,0,0,9.28,7.81,21.32,21.32,0,0,0,8.11,2.7,29.6,29.6,0,0,0,6.58-.29c5.12-.64,10.31-1.54,14.86-4,2.6-1.38,5-3.24,7.63-4.45,2.45-1.1,5.16-1.66,7.42-3.11a21.4,21.4,0,0,0,5.16-5.36l5.35-7a46.82,46.82,0,0,0,4.38-6.47c1.09-2.08,3.55-6.53,2.48-9S241.81,172.27,239.46,171.83Z" transform="translate(-7.47 -26.82)" fill="url(#linear-gradient-7)"/><path d="M246.63,175.77s3.93-2.77,4.7,7.26.93,23.14.93,23.14l-15.74,5.71s-2.62-14.35-2-21.44S240.07,175.61,246.63,175.77Z" transform="translate(-7.47 -26.82)" fill="#509a4f" class="target-color"/><rect x="197.94" y="292.05" width="7.72" height="10.03" transform="translate(168.1 -87.93) rotate(30)" fill="#509a4f" class="target-color"/><path d="M194.84,299.77a5.15,5.15,0,0,0-1.1,1.55l-1.39,2.59a3.52,3.52,0,0,0-.59,1.75,3.68,3.68,0,0,0,1.67,2.46,75,75,0,0,0,7.71,5.84,1.6,1.6,0,0,0,1.54.33,1.24,1.24,0,0,0,.58-.89c.41-1.95-1.42-3.71-1.54-5.71a5,5,0,0,1,.84-2.79,2.79,2.79,0,0,0,.46-1c.12-.79-.55-1.45-1.19-1.92C200.39,301,196.56,298.32,194.84,299.77Z" transform="translate(-7.47 -26.82)" fill="#3e3e54"/><path d="M372.27,323.23c-7.21,3.36-14.72,6.19-22,9.34-31.41,13.58-59.74,33.67-91.51,46.37C198.51,403,125.69,397.24,73.5,358.7a158.73,158.73,0,0,1-31.81-31.44v-4Z" transform="translate(-7.47 -26.82)" fill="#509a4f" opacity="0.41" style="isolation:isolate" class="target-color"/><path d="M82.54,157.41,75,324.36H95.86l-9.41-167A2,2,0,0,0,82.54,157.41Z" transform="translate(-7.47 -26.82)" fill="#509a4f" class="target-color"/><path d="M82.54,157.41,75,324.36H95.86l-9.41-167A2,2,0,0,0,82.54,157.41Z" transform="translate(-7.47 -26.82)" fill="url(#linear-gradient-8)"/><polygon points="76.94 127.04 62.16 136.16 48.67 161.75 52.04 162.94 78.43 130.81 76.94 127.04" fill="#509a4f" class="target-color"/><polygon points="76.94 127.04 62.16 136.16 48.67 161.75 52.04 162.94 78.43 130.81 76.94 127.04" fill="url(#linear-gradient-9)"/><polygon points="78.7 130.2 74.92 113.25 55.17 92.11 52.94 94.91 74.65 130.37 78.7 130.2" fill="#509a4f" class="target-color"/><polygon points="78.7 130.2 74.92 113.25 55.17 92.11 52.94 94.91 74.65 130.37 78.7 130.2" fill="url(#linear-gradient-10)"/><polygon points="74.53 130.4 90.22 137.86 119.03 135.29 118.2 131.81 76.89 127.11 74.53 130.4" fill="#509a4f" class="target-color"/><polygon points="74.53 130.4 90.22 137.86 119.03 135.29 118.2 131.81 76.89 127.11 74.53 130.4" fill="url(#linear-gradient-11)"/><path d="M156.25,334.23a123,123,0,0,0-46.35,18.53l139.18-4.55c2.62-.09,6-.79,6.36-3.38.34-2.28-2.06-4.08-2.48-6.35-.76-4,4.46-6.28,8.51-7L302,324.59c-27.65-2.75-55.45-3.66-83.24-3.7-13.71,0-27.43.18-41.14.49-8.52.18-28.47-3.05-34.36,4.06C144.93,328.24,152.37,334.91,156.25,334.23Z" transform="translate(-7.47 -26.82)" fill="url(#linear-gradient-12)"/><path d="M411.63,282.9a77.45,77.45,0,0,1-11.38,19.67A63.83,63.83,0,0,1,391,312a31,31,0,0,1-6.94.38c-8.66-.56-12.13-7.9-11.67-15.79a29.08,29.08,0,0,1,4.29-13.13c1-1.8,2.18-3.56,3.34-5.35a72.15,72.15,0,0,0,5-8.68,14.49,14.49,0,0,0,1.6-5.33c.15-3.05-1.38-5.91-2.68-8.67-3.92-8.32-6.18-17.59-5.21-26.73.31-3,1.12-6.22,3.46-8.12,2-1.63,4.79-2,7.38-1.77a10.81,10.81,0,0,1,6.24,2.2c2,1.7,2.89,4.36,3.28,6.95,1,6.46-.74,13.12.39,19.56a6.78,6.78,0,0,0,1.11,3c1.56,2.09,4.68,2.22,6.75,3.83,3,2.34,2.87,6.93,1.81,10.6s-2.76,7.42-1.89,11.14C407.87,278.73,409.73,280.85,411.63,282.9Z" transform="translate(-7.47 -26.82)" fill="#509a4f" class="target-color"/><path d="M411.63,282.9a77.45,77.45,0,0,1-11.38,19.67A63.83,63.83,0,0,1,391,312a31,31,0,0,1-6.94.38c-8.66-.56-12.13-7.9-11.67-15.79a29.08,29.08,0,0,1,4.29-13.13c1-1.8,2.18-3.56,3.34-5.35a72.15,72.15,0,0,0,5-8.68,14.49,14.49,0,0,0,1.6-5.33c.15-3.05-1.38-5.91-2.68-8.67-3.92-8.32-6.18-17.59-5.21-26.73.31-3,1.12-6.22,3.46-8.12,2-1.63,4.79-2,7.38-1.77a10.81,10.81,0,0,1,6.24,2.2c2,1.7,2.89,4.36,3.28,6.95,1,6.46-.74,13.12.39,19.56a6.78,6.78,0,0,0,1.11,3c1.56,2.09,4.68,2.22,6.75,3.83,3,2.34,2.87,6.93,1.81,10.6s-2.76,7.42-1.89,11.14C407.87,278.73,409.73,280.85,411.63,282.9Z" transform="translate(-7.47 -26.82)" fill="url(#linear-gradient-13)"/><path d="M400.31,302.1l-.06.47A63.83,63.83,0,0,1,391,312l0,0a88,88,0,0,1-18.66,11.25c-4,1.85-8,3.54-12.09,5.21-5.64-4.93-6.93-15.72-5.33-23.38,1.16-5.62,3.15-11.31,2.08-16.94-1-5.21-4.47-9.54-7.76-13.69-5.61-7.07-11.18-14.62-13-23.45s1.15-19.31,9.14-23.51a5.26,5.26,0,0,1,2.92-.76,5.87,5.87,0,0,1,2.94,1.54,47.6,47.6,0,0,1,16.08,26.1c1.91,8.46,2.51,19,10.3,22.81a14,14,0,0,0,2.44.9c2.65.75,5.5,1,8,2.06,6.62,2.84,9.42,10.55,11.5,17.45A12,12,0,0,1,400.31,302.1Z" transform="translate(-7.47 -26.82)" fill="#509a4f" class="target-color"/><path d="M400.31,302.1l-.06.47A63.83,63.83,0,0,1,391,312l0,0a88,88,0,0,1-18.66,11.25c-4,1.85-8,3.54-12.09,5.21-5.64-4.93-6.93-15.72-5.33-23.38,1.16-5.62,3.15-11.31,2.08-16.94-1-5.21-4.47-9.54-7.76-13.69-5.61-7.07-11.18-14.62-13-23.45s1.15-19.31,9.14-23.51a5.26,5.26,0,0,1,2.92-.76,5.87,5.87,0,0,1,2.94,1.54,47.6,47.6,0,0,1,16.08,26.1c1.91,8.46,2.51,19,10.3,22.81a14,14,0,0,0,2.44.9c2.65.75,5.5,1,8,2.06,6.62,2.84,9.42,10.55,11.5,17.45A12,12,0,0,1,400.31,302.1Z" transform="translate(-7.47 -26.82)" fill="url(#linear-gradient-14)"/><path d="M400.31,302.1l-.06.47A63.83,63.83,0,0,1,391,312l0,0a88,88,0,0,1-18.66,11.25c-4,1.85-8,3.54-12.09,5.21-5.64-4.93-6.93-15.72-5.33-23.38,1.16-5.62,3.15-11.31,2.08-16.94-1-5.21-4.47-9.54-7.76-13.69-5.61-7.07-11.18-14.62-13-23.45s1.15-19.31,9.14-23.51a5.26,5.26,0,0,1,2.92-.76,5.87,5.87,0,0,1,2.94,1.54,47.6,47.6,0,0,1,16.08,26.1c1.91,8.46,2.51,19,10.3,22.81a14,14,0,0,0,2.44.9c2.65.75,5.5,1,8,2.06,6.62,2.84,9.42,10.55,11.5,17.45A12,12,0,0,1,400.31,302.1Z" transform="translate(-7.47 -26.82)" fill="#509a4f" class="target-color"/></svg>