<svg xmlns="http://www.w3.org/2000/svg" viewBox="0 0 400 300" data-imageid="city-buildings-outline" imageName="City buildings" class="illustrations_image" style="width: 146px;"><g id="_229_city_buildings_outline" data-name="#229_city_buildings_outline"><path d="M220.86,129.06s-6.41-10.12-12.71-5c0,0-2-8.68-8.41-5.44s-3.68,8.56-3.68,8.56-8.2-.88-9.05,3.32c0,0-7.14,0-7.87,6h43.4Z" fill="#fff"/><path d="M222.54,137.49h-43.4a1,1,0,0,1-.75-.34,1,1,0,0,1-.25-.78c.62-5,5.22-6.58,8.13-6.81,1.27-3.11,6-3.45,8.38-3.43a7,7,0,0,1,.16-3.66,8.3,8.3,0,0,1,4.48-4.72,5.9,5.9,0,0,1,5.36-.33c2.23,1,3.46,3.52,4,5.08a6.41,6.41,0,0,1,4.32-.78c4.82.78,8.53,6.56,8.69,6.8a1.27,1.27,0,0,1,.13.32l1.68,7.43a1,1,0,0,1-.19.84A1,1,0,0,1,222.54,137.49Zm-42.16-2h40.91l-1.36-6c-.56-.83-3.66-5.2-7.24-5.77a4.77,4.77,0,0,0-3.91,1.17,1,1,0,0,1-1.61-.55s-.95-4-3.37-5.09a4,4,0,0,0-3.61.32,6.37,6.37,0,0,0-3.48,3.55,5.31,5.31,0,0,0,.24,3.66,1,1,0,0,1-1,1.45c-.07,0-7.31-.68-7.95,2.53a1,1,0,0,1-1,.8h0C186.78,131.53,181.68,131.58,180.38,135.49Z" fill="#093f68"/><path d="M137.88,190.33a13.86,13.86,0,0,1,17.81.45c-.23-.22,2.33-2.25,2.58-2.4a10.17,10.17,0,0,1,3.67-1.42c2.48-.44,5.43.08,7.16,2.06a1.38,1.38,0,0,1,1-1.19,1.4,1.4,0,0,1,1.45.57c-.82-1.26,1.74-3.05,2.53-3.49a14.38,14.38,0,0,1,4.24-1.29,40.82,40.82,0,0,1,10.41-.64,39.38,39.38,0,0,1,19.57,6.63c.63.44,1.25.89,1.85,1.36,3.19-3.42,6.6-5.31,11.42-4.8a6.76,6.76,0,0,1,5.16,2.91,3.05,3.05,0,0,1,3.09-1.86,4.69,4.69,0,0,1,3.25,1.91c-1.29-1.67,4.59-4.69,5.56-4.87,3.05-.55,6,1.45,8.39,3.17a14.86,14.86,0,0,1,17.44-3.17,10.34,10.34,0,0,1,14.07,2.19,8.1,8.1,0,0,1,11.76,1.42c-.19-.29,3.69-1.76,4.15-1.73a4.3,4.3,0,0,1,3.56,2.68,3.38,3.38,0,0,1,2.06-.8,1.74,1.74,0,0,1,1.52,1.87,4.3,4.3,0,0,1,3.74-1c3.4.74,4.35,6.29,4.34,9.2H116.37C116.07,198.07,128,183.84,137.88,190.33Z" fill="#70cc40"/><path d="M309.67,199.07H116.37a1,1,0,0,1-1-.68c-.48-1.42,5.34-6,5.39-6.06,6.22-4.82,12.22-6,17-3.22a15.09,15.09,0,0,1,17.73.22,18.29,18.29,0,0,1,2.2-1.8,11.32,11.32,0,0,1,4-1.55,9.23,9.23,0,0,1,7.08,1.44,2.49,2.49,0,0,1,1-.56,2.38,2.38,0,0,1,.8-.05A8.11,8.11,0,0,1,173.6,184a14.61,14.61,0,0,1,4.45-1.38,41.4,41.4,0,0,1,10.76-.68,40.21,40.21,0,0,1,20.06,6.81c.4.27.8.55,1.19.85,3.56-3.56,7.19-4.94,11.62-4.47a8.24,8.24,0,0,1,5,2.22,4.17,4.17,0,0,1,3.24-1.17,5.08,5.08,0,0,1,2.53.93c1.41-1.94,5.26-3.73,6-3.87,3.07-.56,5.94,1.07,8.45,2.84a15.83,15.83,0,0,1,17.47-3,11.43,11.43,0,0,1,14.32,1.94,9.21,9.21,0,0,1,11.82,1.46,15.27,15.27,0,0,1,4-1.37h0a5.16,5.16,0,0,1,3.89,2.28,3.31,3.31,0,0,1,1.77-.4,2.71,2.71,0,0,1,1.83,1,3.06,3.06,0,0,1,.21.29,5.26,5.26,0,0,1,3.36-.41c4.05.89,5.13,6.82,5.12,10.18A1,1,0,0,1,309.67,199.07Zm-191.17-2H308.64c-.19-2.87-1.21-6.72-3.52-7.22a3.29,3.29,0,0,0-2.85.77,1,1,0,0,1-1.13.16,1,1,0,0,1-.54-1,.63.63,0,0,0-.17-.48A.68.68,0,0,0,300,189a2.72,2.72,0,0,0-1.42.64,1,1,0,0,1-1.5-.47,3.32,3.32,0,0,0-2.6-2,21,21,0,0,0-3.35,1.29,1,1,0,0,1-.27.28,1,1,0,0,1-1.39-.29,7.1,7.1,0,0,0-10.23-1.24,1,1,0,0,1-.79.27,1,1,0,0,1-.71-.42,9.34,9.34,0,0,0-12.66-2,1,1,0,0,1-1.06.09,13.92,13.92,0,0,0-16.23,2.95,1,1,0,0,1-1.34.14c-2.33-1.69-5-3.46-7.62-3-1.06.22-4.82,2.46-4.92,3.36a.94.94,0,0,1-.19,1.35,1,1,0,0,1-1.41-.22,3.69,3.69,0,0,0-2.54-1.52,2.07,2.07,0,0,0-2.08,1.19,1,1,0,0,1-1.8.19,5.77,5.77,0,0,0-4.4-2.44c-4.08-.43-7.25.91-10.58,4.5a1,1,0,0,1-1.35.1c-.59-.46-1.2-.91-1.81-1.32A38.21,38.21,0,0,0,188.68,184a39.61,39.61,0,0,0-10.16.64,13.15,13.15,0,0,0-4,1.18c-1,.58-2.2,1.69-2.17,2.08a1,1,0,1,1-1.68,1.08h0a.39.39,0,0,0-.37-.15.4.4,0,0,0-.26.3,1,1,0,0,1-1.75.58c-1.58-1.82-4.34-2.07-6.22-1.73a9.38,9.38,0,0,0-3.31,1.27,21.81,21.81,0,0,0-2.16,1.83,1,1,0,0,1-.23.41,1,1,0,0,1-1.41,0h0a12.88,12.88,0,0,0-16.48-.42,1,1,0,0,1-1.2.08,9.37,9.37,0,0,0-7.4-1.28C125,190.94,120.61,194.87,118.5,197.07Zm37.88-7Zm0,0h0Zm134.77-2.72.07.12Zm0,0h0Z" fill="#093f68"/><rect x="235.06" y="163.98" width="62.25" height="6.19" fill="#5aac45" class="target-color"/><path d="M297.31,171.17H235.06a1,1,0,0,1-1-1V164a1,1,0,0,1,1-1h62.25a1,1,0,0,1,1,1v6.19A1,1,0,0,1,297.31,171.17Zm-61.25-2h60.25V165H236.06Z" fill="#093f68"/><rect x="237.72" y="170.17" width="56.92" height="27.34" fill="#5aac45" class="target-color"/><path d="M294.65,198.51H237.72a1,1,0,0,1-1-1V170.17a1,1,0,0,1,1-1h56.93a1,1,0,0,1,1,1v27.34A1,1,0,0,1,294.65,198.51Zm-55.93-2h54.93V171.17H238.72Z" fill="#093f68"/><rect x="302.08" y="147.53" width="29.75" height="4.82" fill="#5aac45" class="target-color"/><path d="M331.83,153.34H302.08a1,1,0,0,1-1-1v-4.81a1,1,0,0,1,1-1h29.75a1,1,0,0,1,1,1v4.81A1,1,0,0,1,331.83,153.34Zm-28.75-2h27.75v-2.81H303.08Z" fill="#093f68"/><rect x="304.23" y="152.34" width="25.45" height="45.74" fill="#5aac45" class="target-color"/><path d="M329.68,199.09H304.23a1,1,0,0,1-1-1V152.34a1,1,0,0,1,1-1h25.45a1,1,0,0,1,1,1v45.75A1,1,0,0,1,329.68,199.09Zm-24.45-2h23.45V153.34H305.23Z" fill="#093f68"/><polygon points="212.09 173.69 212.09 168.85 190.25 168.85 190.25 173.69 170.47 173.69 170.47 179.79 173.82 179.79 173.82 198.09 228.51 198.09 228.51 179.79 231.86 179.79 231.86 173.69 212.09 173.69" fill="#5aac45" class="target-color"/><path d="M228.51,199.09H173.82a1,1,0,0,1-1-1v-17.3h-2.35a1,1,0,0,1-1-1v-6.1a1,1,0,0,1,1-1h18.78v-3.84a1,1,0,0,1,1-1h21.83a1,1,0,0,1,1,1v3.84h18.78a1,1,0,0,1,1,1v6.1a1,1,0,0,1-1,1h-2.35v17.3A1,1,0,0,1,228.51,199.09Zm-53.69-2h52.69v-17.3a1,1,0,0,1,1-1h2.35v-4.1H212.08a1,1,0,0,1-1-1v-3.84H191.25v3.84a1,1,0,0,1-1,1H171.47v4.1h2.35a1,1,0,0,1,1,1Z" fill="#093f68"/><polygon points="121.2 159.22 121.2 152 103.92 152 103.92 159.22 95.92 159.22 95.92 152 78.64 152 78.64 159.22 70.9 159.22 70.9 198.09 129.97 198.09 129.97 159.22 121.2 159.22" fill="#5aac45" class="target-color"/><path d="M130,199.09H70.9a1,1,0,0,1-1-1V159.22a1,1,0,0,1,1-1h6.74V152a1,1,0,0,1,1-1H95.92a1,1,0,0,1,1,1v6.22h6V152a1,1,0,0,1,1-1H121.2a1,1,0,0,1,1,1v6.22H130a1,1,0,0,1,1,1v38.87A1,1,0,0,1,130,199.09Zm-58.07-2H129V160.22H121.2a1,1,0,0,1-1-1V153H104.92v6.22a1,1,0,0,1-1,1h-8a1,1,0,0,1-1-1V153H79.64v6.22a1,1,0,0,1-1,1H71.9Z" fill="#093f68"/><polygon points="163.59 131.37 163.59 125.36 159.98 125.36 159.98 119.34 157.65 119.34 157.65 113.33 143.97 113.33 143.97 119.34 141.64 119.34 141.64 125.36 138.04 125.36 138.04 131.37 134.43 131.37 134.43 198.09 167.19 198.09 167.19 131.37 163.59 131.37" fill="#5aac45" class="target-color"/><path d="M167.19,199.09H134.43a1,1,0,0,1-1-1V131.37a1,1,0,0,1,1-1H137v-5a1,1,0,0,1,1-1h2.6v-5a1,1,0,0,1,1-1H143v-5a1,1,0,0,1,1-1h13.68a1,1,0,0,1,1,1v5H160a1,1,0,0,1,1,1v5h2.6a1,1,0,0,1,1,1v5h2.61a1,1,0,0,1,1,1v66.72A1,1,0,0,1,167.19,199.09Zm-31.76-2h30.76V132.37h-2.61a1,1,0,0,1-1-1v-5H160a1,1,0,0,1-1-1v-5h-1.33a1,1,0,0,1-1-1v-5H145v5a1,1,0,0,1-1,1h-1.33v5a1,1,0,0,1-1,1H139v5a1,1,0,0,1-1,1h-2.61Z" fill="#093f68"/><path d="M150.81,114.33a1,1,0,0,1-1-1V101.91a1,1,0,0,1,2,0v11.42A1,1,0,0,1,150.81,114.33Z" fill="#093f68"/><path d="M142.24,199.09a1,1,0,0,1-1-1V133.24a1,1,0,0,1,2,0v64.85A1,1,0,0,1,142.24,199.09Z" fill="#093f68"/><path d="M148,199.09a1,1,0,0,1-1-1V133.24a1,1,0,0,1,2,0v64.85A1,1,0,0,1,148,199.09Z" fill="#093f68"/><path d="M153.67,199.09a1,1,0,0,1-1-1V133.24a1,1,0,0,1,2,0v64.85A1,1,0,0,1,153.67,199.09Z" fill="#093f68"/><path d="M159.38,199.09a1,1,0,0,1-1-1V133.24a1,1,0,0,1,2,0v64.85A1,1,0,0,1,159.38,199.09Z" fill="#093f68"/><rect x="80.07" y="165.66" width="5.16" height="3.73" rx="0.76" fill="#093f68"/><rect x="90.71" y="165.66" width="5.16" height="3.73" rx="0.76" fill="#093f68"/><rect x="80.07" y="173.23" width="5.16" height="3.73" rx="0.76" fill="#093f68"/><rect x="90.71" y="173.23" width="5.16" height="3.73" rx="0.76" fill="#093f68"/><rect x="80.07" y="180.8" width="5.16" height="3.73" rx="0.76" fill="#093f68"/><rect x="90.71" y="180.8" width="5.16" height="3.73" rx="0.76" fill="#093f68"/><rect x="80.07" y="188.36" width="5.16" height="3.73" rx="0.76" fill="#093f68"/><rect x="90.71" y="188.36" width="5.16" height="3.73" rx="0.76" fill="#093f68"/><rect x="105.01" y="165.66" width="5.16" height="3.73" rx="0.76" fill="#093f68"/><rect x="115.65" y="165.66" width="5.16" height="3.73" rx="0.76" fill="#093f68"/><rect x="105.01" y="173.23" width="5.16" height="3.73" rx="0.76" fill="#093f68"/><rect x="115.65" y="173.23" width="5.16" height="3.73" rx="0.76" fill="#093f68"/><rect x="105.01" y="180.8" width="5.16" height="3.73" rx="0.76" fill="#093f68"/><rect x="115.65" y="180.8" width="5.16" height="3.73" rx="0.76" fill="#093f68"/><rect x="105.01" y="188.36" width="5.16" height="3.73" rx="0.76" fill="#093f68"/><rect x="115.65" y="188.36" width="5.16" height="3.73" rx="0.76" fill="#093f68"/><path d="M334.16,199.09H65.84a1,1,0,0,1,0-2H334.16a1,1,0,0,1,0,2Z" fill="#093f68"/><circle cx="224.78" cy="130.53" r="19.23" fill="#ffbc0e"/><path d="M224.78,150.76A20.23,20.23,0,1,1,245,130.53,20.25,20.25,0,0,1,224.78,150.76Zm0-38.46A18.23,18.23,0,1,0,243,130.53,18.26,18.26,0,0,0,224.78,112.3Z" fill="#093f68"/><path d="M181.24,183.4a1,1,0,0,1-1-1v-1.9a1,1,0,0,1,2,0v1.9A1,1,0,0,1,181.24,183.4Z" fill="#093f68"/><path d="M188,183.4a1,1,0,0,1-1-1v-1.9a1,1,0,0,1,2,0v1.9A1,1,0,0,1,188,183.4Z" fill="#093f68"/><path d="M197.8,183.4a1,1,0,0,1-1-1v-1.9a1,1,0,0,1,2,0v1.9A1,1,0,0,1,197.8,183.4Z" fill="#093f68"/><path d="M204.53,183.4a1,1,0,0,1-1-1v-1.9a1,1,0,0,1,2,0v1.9A1,1,0,0,1,204.53,183.4Z" fill="#093f68"/><path d="M214.36,183.4a1,1,0,0,1-1-1v-1.9a1,1,0,0,1,2,0v1.9A1,1,0,0,1,214.36,183.4Z" fill="#093f68"/><path d="M221.09,183.4a1,1,0,0,1-1-1v-1.9a1,1,0,0,1,2,0v1.9A1,1,0,0,1,221.09,183.4Z" fill="#093f68"/><path d="M181.24,189.87a1,1,0,0,1-1-1V187a1,1,0,0,1,2,0v1.9A1,1,0,0,1,181.24,189.87Z" fill="#093f68"/><path d="M188,189.87a1,1,0,0,1-1-1V187a1,1,0,0,1,2,0v1.9A1,1,0,0,1,188,189.87Z" fill="#093f68"/><path d="M197.8,189.87a1,1,0,0,1-1-1V187a1,1,0,1,1,2,0v1.9A1,1,0,0,1,197.8,189.87Z" fill="#093f68"/><path d="M204.53,189.87a1,1,0,0,1-1-1V187a1,1,0,0,1,2,0v1.9A1,1,0,0,1,204.53,189.87Z" fill="#093f68"/><path d="M214.36,189.87a1,1,0,0,1-1-1V187a1,1,0,0,1,2,0v1.9A1,1,0,0,1,214.36,189.87Z" fill="#093f68"/><path d="M221.09,189.87a1,1,0,0,1-1-1V187a1,1,0,0,1,2,0v1.9A1,1,0,0,1,221.09,189.87Z" fill="#093f68"/><path d="M212.08,174.69H190.25a1,1,0,0,1,0-2h21.83a1,1,0,0,1,0,2Z" fill="#093f68"/><path d="M249.13,177.38H244a1,1,0,0,1,0-2h5.12a1,1,0,0,1,0,2Z" fill="#093f68"/><path d="M258.93,177.38h-5.11a1,1,0,0,1,0-2h5.11a1,1,0,0,1,0,2Z" fill="#093f68"/><path d="M268.74,177.38h-5.11a1,1,0,0,1,0-2h5.11a1,1,0,0,1,0,2Z" fill="#093f68"/><path d="M278.55,177.38h-5.12a1,1,0,0,1,0-2h5.12a1,1,0,0,1,0,2Z" fill="#093f68"/><path d="M288.36,177.38h-5.12a1,1,0,0,1,0-2h5.12a1,1,0,0,1,0,2Z" fill="#093f68"/><path d="M249.13,184.13H244a1,1,0,0,1,0-2h5.12a1,1,0,0,1,0,2Z" fill="#093f68"/><path d="M258.93,184.13h-5.11a1,1,0,0,1,0-2h5.11a1,1,0,0,1,0,2Z" fill="#093f68"/><path d="M268.74,184.13h-5.11a1,1,0,0,1,0-2h5.11a1,1,0,0,1,0,2Z" fill="#093f68"/><path d="M278.55,184.13h-5.12a1,1,0,0,1,0-2h5.12a1,1,0,0,1,0,2Z" fill="#093f68"/><path d="M288.36,184.13h-5.12a1,1,0,0,1,0-2h5.12a1,1,0,0,1,0,2Z" fill="#093f68"/><path d="M249.13,190.88H244a1,1,0,0,1,0-2h5.12a1,1,0,0,1,0,2Z" fill="#093f68"/><path d="M258.93,190.88h-5.11a1,1,0,0,1,0-2h5.11a1,1,0,0,1,0,2Z" fill="#093f68"/><path d="M268.74,190.88h-5.11a1,1,0,0,1,0-2h5.11a1,1,0,0,1,0,2Z" fill="#093f68"/><path d="M278.55,190.88h-5.12a1,1,0,0,1,0-2h5.12a1,1,0,0,1,0,2Z" fill="#093f68"/><path d="M288.36,190.88h-5.12a1,1,0,0,1,0-2h5.12a1,1,0,0,1,0,2Z" fill="#093f68"/><path d="M310.49,193.46a1,1,0,0,1-1-1V157.77a1,1,0,1,1,2,0v34.69A1,1,0,0,1,310.49,193.46Z" fill="#093f68"/><path d="M317,193.46a1,1,0,0,1-1-1V157.77a1,1,0,0,1,2,0v34.69A1,1,0,0,1,317,193.46Z" fill="#093f68"/><path d="M323.42,193.46a1,1,0,0,1-1-1V157.77a1,1,0,0,1,2,0v34.69A1,1,0,0,1,323.42,193.46Z" fill="#093f68"/><path d="M221.07,143.29s.92-8.28,7.26-8.77c4.48-.34,5.78,3,5.78,3a8.55,8.55,0,0,1,4-8.06c4.73-3,9.5-2.07,11.06,1.94a11.09,11.09,0,0,1,13.38,1.93c6.3,6.23,6.25,10,6.25,10Z" fill="#fff"/><path d="M268.79,144.29H221.07a1,1,0,0,1-.74-.34,1,1,0,0,1-.25-.77c.35-3.15,2.5-9.22,8.17-9.66a7,7,0,0,1,5,1.34,9.43,9.43,0,0,1,4.32-6.25c2.83-1.82,5.88-2.4,8.37-1.59a6.57,6.57,0,0,1,3.7,3,12,12,0,0,1,13.61,2.56c6.42,6.35,6.55,10.27,6.55,10.69A1,1,0,0,1,268.79,144.29Zm-46.51-2h45.3c-.43-1.42-1.74-4.3-5.75-8.25a10,10,0,0,0-12.16-1.8,1,1,0,0,1-.84.09,1,1,0,0,1-.6-.58,4.62,4.62,0,0,0-2.92-2.82c-1.92-.63-4.35-.13-6.67,1.36a7.51,7.51,0,0,0-3.54,7.08,1,1,0,0,1-.74,1.1,1,1,0,0,1-1.19-.6c0-.1-1.13-2.62-4.77-2.35C224.27,135.83,222.76,140.19,222.28,142.29Z" fill="#093f68"/><path d="M72,130.53s.83-7.48,6.55-7.92c4-.31,5.23,2.7,5.23,2.7a7.73,7.73,0,0,1,3.6-7.28c4.28-2.75,8.59-1.87,10,1.75a10,10,0,0,1,12.09,1.75c5.7,5.63,5.65,9,5.65,9Z" fill="#fff"/><path d="M115.12,131.53H72a1,1,0,0,1-.74-.33,1,1,0,0,1-.25-.78c.32-2.87,2.28-8.41,7.47-8.8a6.42,6.42,0,0,1,4.45,1.13,8.68,8.68,0,0,1,3.91-5.56,9.16,9.16,0,0,1,7.65-1.44,6,6,0,0,1,3.35,2.7,10.91,10.91,0,0,1,12.32,2.37c5.83,5.76,6,9.34,6,9.72A1,1,0,0,1,115.12,131.53Zm-41.9-2H113.9c-.42-1.3-1.64-3.83-5.13-7.29a9,9,0,0,0-10.87-1.6,1,1,0,0,1-.84.09,1,1,0,0,1-.61-.59,4,4,0,0,0-2.57-2.49,7.2,7.2,0,0,0-5.95,1.22,6.67,6.67,0,0,0-3.15,6.3,1,1,0,0,1-1.93.5c0-.08-1-2.3-4.21-2.06C75.05,123.88,73.68,127.62,73.22,129.53Z" fill="#093f68"/><path d="M291.06,127.18s.82-7.48,6.55-7.92c4.05-.31,5.22,2.7,5.22,2.7a7.75,7.75,0,0,1,3.61-7.28c4.27-2.75,8.58-1.88,10,1.75a10,10,0,0,1,12.08,1.75c5.7,5.62,5.65,9,5.65,9Z" fill="#fff"/><path d="M334.16,128.18h-43.1a1,1,0,0,1-1-1.11c.32-2.87,2.29-8.41,7.47-8.81A6.39,6.39,0,0,1,302,119.4a8.56,8.56,0,0,1,3.91-5.56,9.15,9.15,0,0,1,7.64-1.45,6,6,0,0,1,3.35,2.71,10.91,10.91,0,0,1,12.33,2.37c5.83,5.75,5.95,9.33,5.94,9.72A1,1,0,0,1,334.16,128.18Zm-41.9-2h40.68c-.42-1.3-1.63-3.84-5.13-7.29a9,9,0,0,0-10.87-1.61,1,1,0,0,1-1.44-.49,4.08,4.08,0,0,0-2.58-2.5,7.22,7.22,0,0,0-5.94,1.23,6.7,6.7,0,0,0-3.16,6.29,1,1,0,0,1-.74,1.11,1,1,0,0,1-1.18-.6c0-.09-1-2.31-4.22-2.06C294.09,120.53,292.73,124.26,292.26,126.18Z" fill="#093f68"/></g></svg>