<svg id="Layer_1" data-name="Layer 1" xmlns="http://www.w3.org/2000/svg" viewBox="0 0 400 300" data-imageid="dream-two-color-f92fb" imageName="Dream" class="illustrations_image" style="width: 146px;"><path d="M194.38,227.66c-14.53-3.79-28.2-9.92-41.31-16.48-14.49-7.23-31.83-3-47.31-4-14.54-.89-29.2-6.59-38.77-17.57S53.88,162,60.31,148.93c4.11-8.36,11.85-14.94,14-24,2.66-11.18-3.93-23.16-.72-34.19,2.21-7.58,8.8-13.25,16.07-16.32,10.84-4.57,20.46-2.33,31.33-3.8,13.2-1.78,25.63.43,38.73-4.52,12-4.51,22.62-12.36,35-15.43a48.35,48.35,0,0,1,28.53,1.71c14.37,5.43,26.1,17.7,41.32,19.75,6.92.94,12.84-3.42,19.64-4.71a52.59,52.59,0,0,1,53.62,22.36,37.76,37.76,0,0,1,6.5,16.38c1.06,9-2.11,18-4.32,26.81-4.62,18.53,4.12,36.81.62,55.1-3.28,17.16-20.26,20.18-35.39,19.19-7.17-.47-16.81-1.2-23.66,1.48-6.08,2.39-10.3,8.46-15.51,12.27-4.56,3.34-10.11,5-15.62,6.3a131.62,131.62,0,0,1-47.84,2A73.36,73.36,0,0,1,194.38,227.66Z" fill="#efefef"/><circle cx="234.36" cy="81.5" r="15.57" fill="#ffd200"/><circle cx="165.42" cy="81.5" r="10" fill="#ccc"/><circle cx="253.46" cy="149.48" r="10.52" fill="#ffd200"/><circle cx="316.64" cy="155.84" r="8.98" fill="#ccc"/><circle cx="137.72" cy="113.07" r="8.98" fill="#ffd200"/><circle cx="242.94" cy="114.02" r="5.3" fill="#ccc"/><circle cx="206.29" cy="214.11" r="5.3" fill="#ffd200"/><circle cx="286.84" cy="188.22" r="5.3" fill="#ffd200"/><circle cx="100.58" cy="122.05" r="5.3" fill="#ccc"/><circle cx="239.66" cy="203.46" r="5.3" fill="#ccc"/><circle cx="95.28" cy="99.68" r="5.3" fill="#ffd200"/><circle cx="111.18" cy="172.81" r="5.3" fill="#ffd200"/><circle cx="298.99" cy="105.65" r="22.56" fill="#ffd200"/><path d="M161.37,208s-24.76,18.83-32.4,15.39-14.9-30.56-14.9-30.56l7.64-3.49s10.32,18.05,13.76,15.93,15.15-17.09,15.15-17.09Z" fill="#24285b"/><path d="M169.06,125.93S124.13,145,99.17,144l1,11.46s42.1,6.75,68.87-4.45S169.06,125.93,169.06,125.93Z" fill="#509a4f" class="target-color"/><polygon points="201.63 113.8 200.48 125.32 192.61 123.53 196.84 109.31 201.63 113.8" fill="#f4a28c"/><path d="M198.34,101a5.26,5.26,0,0,1,8.46,2.48c1.24,4,2.21,9.82-2.43,10.49-7.09,1-8.71-8.11-8.71-8.11A9.62,9.62,0,0,1,198.34,101Z" fill="#f4a28c"/><path d="M200,107.52s-.81-1.81-2.22-.48.63,3.28,1.75,2.81S200,107.52,200,107.52Z" fill="#f4a28c"/><path d="M201.69,105.92s-1.1,9.5-5.8,6.59-.3-5.08-1-9.89,1.78-6.63,7.06-8c2.43-.63,3.92-.74,5-1.18a3,3,0,0,1,4.15,2.79C210.85,100,208.83,104.18,201.69,105.92Z" fill="#24285b"/><path d="M169.06,125.93a22.06,22.06,0,0,1,17.76-4.84c12.12,2,35.43,5,36.57,17.8,1.56,17.48-36.74,64.57-36.74,64.57L149.77,189S147.33,144.24,169.06,125.93Z" fill="#509a4f" class="target-color"/><polygon points="186.65 203.46 152.33 262.29 144.94 258.7 161.38 208.04 150.31 189.24 186.65 203.46" fill="#24285b"/><path d="M169.06,125.93a22.06,22.06,0,0,1,17.76-4.84l3.53.56S147.75,167.12,194,194h0l-7.37,9.5L149.77,189S147.33,144.24,169.06,125.93Z" opacity="0.08"/><path d="M152.12,262.19l2.87,5.86a1.22,1.22,0,0,1-1.62,1.63l-5.86-2.85a3.48,3.48,0,0,1-1.61-4.65l1.18-2.44Z" fill="#509a4f" class="target-color"/><path d="M289.48,164.16,284.91,160l-33.23,9h0a14.38,14.38,0,0,1-13.94-3.72,32.15,32.15,0,0,1-9.38-19.65c-1.8-17.71-18.46-19.7-18.46-19.7s-15.89,5.38-3.4,33.89c7.45,17,20.14,24,29.16,26.9a28.8,28.8,0,0,1,3.21,1.31,8.85,8.85,0,0,0,3.2.75,35.47,35.47,0,0,0,4.11,0h0C257.21,188,271.66,181.92,289.48,164.16Z" fill="#509a4f" class="target-color"/><path d="M289.48,164.16,284.91,160l-33.23,9h0a14.38,14.38,0,0,1-13.94-3.72,32.15,32.15,0,0,1-9.38-19.65c-1.8-17.71-18.46-19.7-18.46-19.7s-15.89,5.38-3.4,33.89c7.45,17,20.14,24,29.16,26.9a28.8,28.8,0,0,1,3.21,1.31,8.85,8.85,0,0,0,3.2.75,35.47,35.47,0,0,0,4.11,0h0C257.21,188,271.66,181.92,289.48,164.16Z" fill="#fff" opacity="0.2"/><path d="M284.91,160s4.55-4.15,5-4.56a1.13,1.13,0,0,1,1-.38c.48.18.49.84.42,1.35a41.15,41.15,0,0,1,5.8-1.5,1.38,1.38,0,0,1,.78,0,1.18,1.18,0,0,1,.5.49,4.57,4.57,0,0,1-.65,5.1,9.72,9.72,0,0,1-4.31,2.93c-.87.29-3.2,1.45-4,.7Z" fill="#f4a28c"/><path d="M121.71,189.38s-2.48-4-3.24-4.15-10.7,3.21-11.08,4.15,6.68,3.49,6.68,3.49Z" fill="#509a4f" class="target-color"/><path d="M99.17,145.4s-5.06-1.14-7.45-.57-9.16,3.73-6.59,5.83,6.5,1.24,7.74,1.53,7.22,2.09,7.22,2.09Z" fill="#f4a28c"/><path d="M206.32,93.62a34,34,0,0,1-5.77,5.76,16.59,16.59,0,0,1-6,3s-.36-7.6-4.35-8.9c-1.58-.51-4.25-1.4-6.1-2l-2-.69.14-1.4S192,86.73,196.1,87,206.32,93.62,206.32,93.62Z" fill="#509a4f" class="target-color"/><circle cx="181.75" cy="90.39" r="1.93" fill="#509a4f" class="target-color"/><path d="M194.59,102.41s-.36-7.6-4.35-8.9c-1.58-.51-4.25-1.4-6.1-2,1.42-1.09,4.24-.93,5.8-.61a15.66,15.66,0,0,1,4.84,2.24c1.86,1.15,3.8,2.35,4.93,4.22a7.57,7.57,0,0,1,.84,2A16.59,16.59,0,0,1,194.59,102.41Z" opacity="0.08"/></svg>