<svg xmlns="http://www.w3.org/2000/svg" viewBox="0 0 400 300" data-imageid="easter-bunny-outline-9a60e" imageName="Easter bunny" class="illustrations_image" style="width: 146px;"><g id="_452_easter_bunny_outline" data-name="#452_easter_bunny_outline"><path d="M255.88,194.35a3.23,3.23,0,0,1-3.24-3.23v-17.7c0-30.52-23.51-55.35-52.42-55.35S147.8,142.9,147.8,173.42v17.7a3.23,3.23,0,0,1-6.46,0v-17.7c0-34.09,26.41-61.82,58.88-61.82s58.89,27.73,58.89,61.82v17.7A3.23,3.23,0,0,1,255.88,194.35Z" fill="#5aac45" class="target-color"/><path d="M255.88,195.35a4.23,4.23,0,0,1-4.24-4.23v-17.7c0-30-23.06-54.35-51.42-54.35s-51.42,24.38-51.42,54.35v17.7a4.23,4.23,0,1,1-8.46,0v-17.7c0-34.64,26.86-62.82,59.88-62.82s59.89,28.18,59.89,62.82v17.7A4.23,4.23,0,0,1,255.88,195.35Zm-55.66-78.28c29.46,0,53.42,25.28,53.42,56.35v17.7a2.24,2.24,0,0,0,4.47,0v-17.7c0-33.53-26-60.82-57.89-60.82s-57.88,27.29-57.88,60.82v17.7a2.23,2.23,0,1,0,4.46,0v-17.7C146.8,142.35,170.77,117.07,200.22,117.07Z" fill="#093f68"/><path d="M200,156.18h0a24.62,24.62,0,0,1,24.62,24.62v8.79a0,0,0,0,1,0,0H175.38a0,0,0,0,1,0,0V180.8A24.62,24.62,0,0,1,200,156.18Z" fill="#fff"/><path d="M224.62,190.59H175.38a1,1,0,0,1-1-1V180.8a25.62,25.62,0,0,1,51.24,0v8.79A1,1,0,0,1,224.62,190.59Zm-48.24-2h47.24V180.8a23.62,23.62,0,0,0-47.24,0Z" fill="#093f68"/><path d="M260.86,185.43a61,61,0,0,1-121.71,0Z" fill="#5aac45" class="target-color"/><path d="M200,243.6a61.94,61.94,0,0,1-61.85-58.11,1,1,0,0,1,.27-.75,1,1,0,0,1,.73-.31H260.86a1,1,0,0,1,.73.31,1,1,0,0,1,.27.75A62,62,0,0,1,200,243.6Zm-59.78-57.17a60,60,0,0,0,12.25,31.79,60,60,0,0,0,107.31-31.79Z" fill="#093f68"/><path d="M236.68,81.38c-7.83,14.08-22.54,30-28,27s.33-24,8.16-38,14.72-16,20.2-12.93S244.51,67.31,236.68,81.38Z" fill="#fff"/><path d="M210.22,109.75a4.16,4.16,0,0,1-2.05-.51c-3.79-2.11-2.85-9.86-1.4-16A97,97,0,0,1,216,69.84c7.14-12.82,14.39-17.3,21.56-13.31s7.18,12.51.05,25.34A97.59,97.59,0,0,1,222.5,102C218.79,105.73,213.93,109.75,210.22,109.75ZM232.5,57.17c-4.79,0-9.75,4.56-14.8,13.65a95,95,0,0,0-9,22.89c-1.75,7.38-1.59,12.66.42,13.78s6.59-1.52,11.94-6.9A95.21,95.21,0,0,0,235.81,80.9c6.49-11.67,6.73-19.28.73-22.62A8.27,8.27,0,0,0,232.5,57.17Z" fill="#093f68"/><path d="M163.32,81.38c7.83,14.08,22.54,30,28,27s-.33-24-8.16-38-14.72-16-20.2-12.93S155.49,67.31,163.32,81.38Z" fill="#fff"/><path d="M189.78,109.75c-3.71,0-8.57-4-12.28-7.75a97.59,97.59,0,0,1-15.06-20.13c-7.13-12.83-7.12-21.35.05-25.34s14.42.49,21.56,13.31a97,97,0,0,1,9.18,23.41c1.45,6.13,2.39,13.88-1.4,16A4.16,4.16,0,0,1,189.78,109.75ZM167.5,57.17a8.27,8.27,0,0,0-4,1.11c-6,3.34-5.76,11,.73,22.62a95.21,95.21,0,0,0,14.73,19.69c5.35,5.38,9.93,8,11.94,6.9s2.17-6.4.42-13.78a95,95,0,0,0-9-22.89C177.25,61.74,172.29,57.17,167.5,57.17Z" fill="#093f68"/><path d="M234.53,135.14C234.53,152.2,219.07,161,200,161s-34.53-8.8-34.53-25.86S180.93,99.2,200,99.2,234.53,118.07,234.53,135.14Z" fill="#fff"/><path d="M200,162c-21.58,0-35.53-10.54-35.53-26.86C164.47,118.06,180,98.2,200,98.2s35.53,19.86,35.53,36.94C235.53,151.46,221.58,162,200,162Zm0-61.8c-15.5,0-33.53,15.26-33.53,34.94,0,15.1,13.16,24.86,33.53,24.86s33.53-9.76,33.53-24.86C233.53,119,218.88,100.2,200,100.2Z" fill="#093f68"/><circle cx="184.88" cy="127.44" r="2.77" fill="#093f68"/><circle cx="215.12" cy="127.44" r="2.77" fill="#093f68"/><path d="M187.42,140.34s4.45,4.5,9,2.51c3.73-1.65,3.73-8.15,3.73-8.15" fill="#fff"/><path d="M194,144.36c-3.9,0-7.08-3.15-7.24-3.32a1,1,0,0,1,0-1.41,1,1,0,0,1,1.42,0s4,4,7.84,2.31c2.57-1.14,3.13-5.61,3.13-7.24a1,1,0,0,1,2,0c0,.3,0,7.18-4.32,9.07A7,7,0,0,1,194,144.36Z" fill="#093f68"/><path d="M212.58,140.34s-4.45,4.5-9,2.51c-3.73-1.65-3.73-8.15-3.73-8.15" fill="#fff"/><path d="M206.05,144.36a7,7,0,0,1-2.83-.59c-4.27-1.89-4.32-8.77-4.32-9.07a1,1,0,0,1,1-1h0a1,1,0,0,1,1,1c0,1.63.57,6.11,3.13,7.24,3.8,1.68,7.8-2.27,7.84-2.31a1,1,0,0,1,1.42,0,1,1,0,0,1,0,1.41C213.13,141.21,210,144.36,206.05,144.36Z" fill="#093f68"/><ellipse cx="200.1" cy="134.7" rx="4.59" ry="2.6" fill="#093f68"/><path d="M200.1,138.3c-3.14,0-5.59-1.58-5.59-3.6s2.45-3.6,5.59-3.6,5.59,1.58,5.59,3.6S203.24,138.3,200.1,138.3Zm0-5.2c-2.19,0-3.59,1-3.59,1.6s1.4,1.6,3.59,1.6,3.59-.94,3.59-1.6S202.29,133.1,200.1,133.1Z" fill="#093f68"/><rect x="134.11" y="177.45" width="131.78" height="14.22" rx="5.22" fill="#5aac45" class="target-color"/><path d="M260.67,192.67H139.33a6.23,6.23,0,0,1-6.22-6.22v-3.78a6.23,6.23,0,0,1,6.22-6.22H260.67a6.23,6.23,0,0,1,6.22,6.22v3.78A6.23,6.23,0,0,1,260.67,192.67ZM139.33,178.45a4.22,4.22,0,0,0-4.22,4.22v3.78a4.22,4.22,0,0,0,4.22,4.22H260.67a4.22,4.22,0,0,0,4.22-4.22v-3.78a4.22,4.22,0,0,0-4.22-4.22Z" fill="#093f68"/><rect x="169.1" y="234.65" width="61.8" height="7.95" rx="2.41" fill="#5aac45" class="target-color"/><path d="M228.49,243.6h-57a3.41,3.41,0,0,1-3.41-3.41v-3.13a3.41,3.41,0,0,1,3.41-3.41h57a3.41,3.41,0,0,1,3.41,3.41v3.13A3.41,3.41,0,0,1,228.49,243.6Zm-57-7.95a1.41,1.41,0,0,0-1.41,1.41v3.13a1.41,1.41,0,0,0,1.41,1.41h57a1.41,1.41,0,0,0,1.41-1.41v-3.13a1.41,1.41,0,0,0-1.41-1.41Z" fill="#093f68"/><path d="M163.67,171.47H173a4.36,4.36,0,0,1,4.36,4.36v3a9,9,0,0,1-9,9h0a9,9,0,0,1-9-9v-3A4.36,4.36,0,0,1,163.67,171.47Z" fill="#fff"/><path d="M168.35,188.86a10.06,10.06,0,0,1-10-10v-3a5.37,5.37,0,0,1,5.36-5.36H173a5.36,5.36,0,0,1,5.36,5.36v3A10.05,10.05,0,0,1,168.35,188.86Zm-4.68-16.39a3.37,3.37,0,0,0-3.36,3.36v3a8,8,0,0,0,16.08,0v-3a3.37,3.37,0,0,0-3.36-3.36Z" fill="#093f68"/><path d="M165.23,188.27a1,1,0,0,1-1-1v-8.34a1,1,0,0,1,2,0v8.34A1,1,0,0,1,165.23,188.27Z" fill="#093f68"/><path d="M171.47,188.27a1,1,0,0,1-1-1v-8.34a1,1,0,0,1,2,0v8.34A1,1,0,0,1,171.47,188.27Z" fill="#093f68"/><path d="M227,171.47h9.36a4.36,4.36,0,0,1,4.36,4.36v3a9,9,0,0,1-9,9h0a9,9,0,0,1-9-9v-3A4.36,4.36,0,0,1,227,171.47Z" fill="#fff"/><path d="M231.65,188.86a10.05,10.05,0,0,1-10-10v-3a5.36,5.36,0,0,1,5.36-5.36h9.36a5.37,5.37,0,0,1,5.36,5.36v3A10.06,10.06,0,0,1,231.65,188.86ZM227,172.47a3.37,3.37,0,0,0-3.36,3.36v3a8,8,0,1,0,16.08,0v-3a3.37,3.37,0,0,0-3.36-3.36Z" fill="#093f68"/><path d="M228.53,188.27a1,1,0,0,1-1-1v-8.34a1,1,0,0,1,2,0v8.34A1,1,0,0,1,228.53,188.27Z" fill="#093f68"/><path d="M234.77,188.27a1,1,0,0,1-1-1v-8.34a1,1,0,0,1,2,0v8.34A1,1,0,0,1,234.77,188.27Z" fill="#093f68"/><path d="M257,203.23a61,61,0,0,1-8.71,15.6H151.68a61,61,0,0,1-8.71-15.6Z" fill="#fff"/><path d="M248.32,219.83H151.68a1,1,0,0,1-.79-.39A61.66,61.66,0,0,1,142,203.58a1,1,0,0,1,.11-.92,1,1,0,0,1,.82-.43H257a1,1,0,0,1,.93,1.35,61.66,61.66,0,0,1-8.85,15.86A1,1,0,0,1,248.32,219.83Zm-96.14-2h95.64a59.75,59.75,0,0,0,7.74-13.6H144.44A59.75,59.75,0,0,0,152.18,217.83Z" fill="#093f68"/><circle cx="162.61" cy="210.67" r="2.84" fill="#5aac45" class="target-color"/><path d="M162.61,214.51a3.84,3.84,0,1,1,3.83-3.84A3.85,3.85,0,0,1,162.61,214.51Zm0-5.68a1.84,1.84,0,1,0,1.83,1.84A1.84,1.84,0,0,0,162.61,208.83Z" fill="#093f68"/><circle cx="187.71" cy="210.67" r="2.84" fill="#5aac45" class="target-color"/><path d="M187.71,214.51a3.84,3.84,0,1,1,3.83-3.84A3.85,3.85,0,0,1,187.71,214.51Zm0-5.68a1.84,1.84,0,1,0,1.83,1.84A1.84,1.84,0,0,0,187.71,208.83Z" fill="#093f68"/><circle cx="212.81" cy="210.67" r="2.84" fill="#5aac45" class="target-color"/><path d="M212.81,214.51a3.84,3.84,0,1,1,3.83-3.84A3.85,3.85,0,0,1,212.81,214.51Zm0-5.68a1.84,1.84,0,1,0,1.83,1.84A1.85,1.85,0,0,0,212.81,208.83Z" fill="#093f68"/><circle cx="237.91" cy="210.67" r="2.84" fill="#5aac45" class="target-color"/><path d="M237.91,214.51a3.84,3.84,0,1,1,3.84-3.84A3.85,3.85,0,0,1,237.91,214.51Zm0-5.68a1.84,1.84,0,1,0,1.84,1.84A1.85,1.85,0,0,0,237.91,208.83Z" fill="#093f68"/></g></svg>