<svg xmlns="http://www.w3.org/2000/svg" viewBox="0 0 400 300" data-imageid="startup-flatline" imageName="Startup" class="illustrations_image" style="width: 146px;"><g id="_287_startup_flatline" data-name="#287_startup_flatline"><path d="M200.32,220,191,227.72s19.75,35.12,22.62,29.91c1.39-2.52-1.83-20-1.83-20" fill="#fff"/><path d="M212.8,258.66c-4.83,0-20.47-27.55-22.23-30.69a.51.51,0,0,1,.11-.63l9.32-7.77a.5.5,0,1,1,.64.77l-9,7.5c6.6,11.69,18,29.82,21.16,29.82a.43.43,0,0,0,.38-.27c1-1.73-.6-12.7-1.88-19.65a.5.5,0,0,1,.4-.58.52.52,0,0,1,.59.4c.33,1.81,3.2,17.71,1.77,20.31a1.39,1.39,0,0,1-1.26.79Z" fill="#231f20"/><path d="M304.22,170.05l-15.8-6.57,21.18-50.9c2-4.9,10.93-12.59,14-11.32s3.86,13,1.82,17.9Z" fill="#fff"/><path d="M304.22,170.55a.43.43,0,0,1-.19,0l-15.8-6.57a.51.51,0,0,1-.27-.27.53.53,0,0,1,0-.39l21.18-50.89c2-4.73,11-13.09,14.63-11.59s4.06,13.82,2.09,18.55l-21.17,50.89A.5.5,0,0,1,304.22,170.55Zm-15.15-7.34L304,169.4l21-50.43c2-4.89,1-16.17-1.55-17.24s-11.29,6.15-13.33,11Z" fill="#231f20"/><rect x="289.7" y="166.74" width="12.58" height="2.74" transform="translate(87.3 -100.82) rotate(22.59)" fill="#fff"/><path d="M301.28,172.29a.48.48,0,0,1-.2,0l-11.61-4.83a.5.5,0,0,1-.27-.66l1.05-2.52a.48.48,0,0,1,.27-.27.5.5,0,0,1,.38,0l11.62,4.83a.5.5,0,0,1,.27.66L301.74,172a.51.51,0,0,1-.27.27A.43.43,0,0,1,301.28,172.29Zm-11-5.6,10.7,4.45.66-1.61L291,165.08Z" fill="#231f20"/><rect x="299.19" y="121.17" width="17.12" height="36.26" transform="translate(77.14 -107.54) rotate(22.59)" fill="#d1d3d4"/><path d="M308.69,159.83a.48.48,0,0,1-.2,0l-15.8-6.58a.48.48,0,0,1-.27-.27.5.5,0,0,1,0-.38l13.93-33.48a.51.51,0,0,1,.27-.27.53.53,0,0,1,.39,0l15.8,6.58a.5.5,0,0,1,.27.65l-13.93,33.48A.51.51,0,0,1,308.69,159.83Zm-15.15-7.35,14.88,6.2L322,126.12l-14.88-6.19Z" fill="#231f20"/><polygon points="281.91 161.61 289.21 161.57 292.36 154.01 283.69 157.33 281.91 161.61" fill="#fff"/><path d="M281.91,162.11a.51.51,0,0,1-.42-.22.49.49,0,0,1,0-.47l1.78-4.28a.48.48,0,0,1,.28-.28l8.67-3.32a.51.51,0,0,1,.54.12.49.49,0,0,1,.1.54l-3.15,7.56a.48.48,0,0,1-.45.31l-7.31,0Zm2.16-4.39-1.41,3.39,6.22,0,2.57-6.18Z" fill="#231f20"/><polygon points="310.13 173.36 305.02 168.15 308.16 160.59 311.92 169.08 310.13 173.36" fill="#fff"/><path d="M310.14,173.86a.51.51,0,0,1-.36-.15l-5.12-5.21a.51.51,0,0,1-.11-.54l3.15-7.57a.51.51,0,0,1,.46-.3h0a.5.5,0,0,1,.46.29l3.75,8.5a.48.48,0,0,1,0,.39l-1.78,4.28a.51.51,0,0,1-.37.3ZM305.6,168l4.36,4.43,1.41-3.39-3.19-7.23Z" fill="#231f20"/><polygon points="148.57 56.76 244.15 59.61 313.53 125.41 300.88 155.8 135.92 87.15 148.57 56.76" fill="#fff"/><path d="M300.88,156.3a.43.43,0,0,1-.19,0l-165-68.65a.48.48,0,0,1-.27-.27.5.5,0,0,1,0-.38l12.65-30.39a.53.53,0,0,1,.47-.31l95.58,2.85a.49.49,0,0,1,.33.13L313.88,125a.51.51,0,0,1,.11.56L301.35,156a.51.51,0,0,1-.27.27A.48.48,0,0,1,300.88,156.3ZM136.57,86.88l164.05,68.27,12.32-29.62-69-65.43-95-2.83Z" fill="#231f20"/><rect x="197.66" y="53.8" width="66.78" height="74.56" rx="18.02" transform="translate(52.73 -81.78) rotate(22.59)" fill="#d1d3d4"/><path d="M237.85,133.3a18.55,18.55,0,0,1-7.12-1.43l-28.39-11.81a18.53,18.53,0,0,1-10-24.21l14.8-35.58a18.53,18.53,0,0,1,24.21-10l28.39,11.82a18.53,18.53,0,0,1,10,24.21l-14.8,35.57a18.58,18.58,0,0,1-17.09,11.41ZM224.26,49.86a17.65,17.65,0,0,0-6.68,1.33,17.43,17.43,0,0,0-9.5,9.47l-14.8,35.57a17.52,17.52,0,0,0,9.44,22.9L231.12,131h0A17.52,17.52,0,0,0,254,121.5l14.8-35.57A17.54,17.54,0,0,0,259.38,63L231,51.22A17.37,17.37,0,0,0,224.26,49.86Z" fill="#231f20"/><path d="M138.65,101.15l-15.81-6.58L144,43.68c2-4.9,10.93-12.59,14-11.32s3.87,13,1.83,17.9Z" fill="#fff"/><path d="M138.65,101.65a.41.41,0,0,1-.19,0L122.65,95a.51.51,0,0,1-.27-.66l21.18-50.89c1-2.37,3.64-5.58,6.75-8.17,1.62-1.34,5.62-4.36,7.88-3.42s2.94,5.91,3.13,8c.36,4,0,8.18-1,10.55l-21.18,50.89A.51.51,0,0,1,138.65,101.65ZM123.5,94.3l14.88,6.2,21-50.43c.93-2.24,1.31-6.19,1-10.08s-1.34-6.67-2.52-7.17-3.87.79-6.86,3.27-5.54,5.55-6.47,7.79Z" fill="#231f20"/><rect x="124.12" y="97.84" width="12.58" height="2.74" transform="translate(48.12 -42.49) rotate(22.59)" fill="#fff"/><path d="M135.7,103.39a.41.41,0,0,1-.19,0l-11.62-4.83a.51.51,0,0,1-.27-.66l1-2.53a.51.51,0,0,1,.27-.27.53.53,0,0,1,.39,0l11.61,4.84a.48.48,0,0,1,.27.27.5.5,0,0,1,0,.38l-1.05,2.53a.51.51,0,0,1-.27.27A.41.41,0,0,1,135.7,103.39Zm-11-5.61,10.69,4.46.67-1.61-10.7-4.45Z" fill="#231f20"/><rect x="133.62" y="52.27" width="17.12" height="36.26" transform="translate(37.96 -49.22) rotate(22.59)" fill="#d1d3d4"/><path d="M143.11,90.93a.43.43,0,0,1-.19,0l-15.81-6.58a.48.48,0,0,1-.27-.27.5.5,0,0,1,0-.38l13.94-33.48a.48.48,0,0,1,.27-.27.5.5,0,0,1,.38,0l15.8,6.58a.49.49,0,0,1,.27.65L143.57,90.62A.5.5,0,0,1,143.11,90.93ZM128,83.58l14.88,6.19,13.55-32.55L141.51,51Z" fill="#231f20"/><polygon points="116.33 92.71 123.64 92.67 126.78 85.11 118.11 88.43 116.33 92.71" fill="#fff"/><path d="M116.33,93.21a.5.5,0,0,1-.46-.69l1.78-4.28a.5.5,0,0,1,.29-.28l8.66-3.32a.51.51,0,0,1,.54.12.49.49,0,0,1,.1.54l-3.14,7.56a.5.5,0,0,1-.46.31l-7.3,0Zm2.16-4.39-1.41,3.39,6.22,0L125.87,86Z" fill="#231f20"/><polygon points="144.56 104.46 139.44 99.25 142.59 91.69 146.34 100.18 144.56 104.46" fill="#fff"/><path d="M144.56,105a.55.55,0,0,1-.36-.15l-5.12-5.21a.49.49,0,0,1-.1-.54l3.15-7.57a.48.48,0,0,1,.45-.3h0a.49.49,0,0,1,.45.29L146.8,100a.55.55,0,0,1,0,.4L145,104.65a.5.5,0,0,1-.37.3ZM140,99.13l4.36,4.44,1.41-3.39L142.6,93Z" fill="#231f20"/><path d="M201.27,64.56h0l-42.18-1.92a.5.5,0,0,1-.48-.52.52.52,0,0,1,.53-.48l42.17,1.92a.5.5,0,0,1,0,1Z" fill="#d1d3d4"/><path d="M307.93,126.72a.51.51,0,0,1-.34-.14L271.71,93.26a.5.5,0,0,1,.69-.73l35.87,33.32a.5.5,0,0,1,0,.71A.52.52,0,0,1,307.93,126.72Z" fill="#d1d3d4"/><path d="M264.85,85.85s55.32,45.42,32.32,48.78c-19.21,2.8-36.66-7.45-36.66-7.45L266,115.13s17.69,8.21,17.08,4.61-24.62-18-24.62-18Z" fill="#5aac45" class="target-color"/><path d="M215.58,67.51s-55.67-6.13-57.12,2.36S181,97.14,181.59,96s13.31-8.63,13.31-8.63l-11.11-8.91,26.62,6Z" fill="#5aac45" class="target-color"/><path d="M263.21,55.33c1.6-3,.48-6.76-1.33-9.64A22.89,22.89,0,0,0,240.11,35.4c-3.87.5-7.85,2.23-9.85,5.59a19.92,19.92,0,0,1,6.4-.23,18.2,18.2,0,0,0-10,11,2.19,2.19,0,0,0-.08,1.55c.4.86,1.62.89,2.53.63s1.93-.66,2.76-.2a11.26,11.26,0,0,0-6.07,5.91,5.85,5.85,0,0,0-.47,3.8,5.19,5.19,0,0,0,1.5,2.33,15.22,15.22,0,0,0,6,3c3.9,1.26,8,2.39,12,1.87,4.9-.62,8.94-3.54,12.52-6.75,1.65-1.48,3.25-1.52,5-2.62a4.15,4.15,0,0,0,1.85-3A14.75,14.75,0,0,0,263.21,55.33Z" fill="#fff"/><path d="M242.77,71.3a33.29,33.29,0,0,1-10.1-2,15.76,15.76,0,0,1-6.24-3.16,5.74,5.74,0,0,1-1.63-2.56,6.21,6.21,0,0,1,.49-4.14,11.78,11.78,0,0,1,4.42-5.18l-.17,0-.34.1c-1.11.31-2.59.27-3.12-.9a2.57,2.57,0,0,1,.06-1.91,18.69,18.69,0,0,1,8.66-10.47,19.46,19.46,0,0,0-4.44.38.5.5,0,0,1-.53-.75c1.85-3.11,5.58-5.24,10.22-5.83a23.24,23.24,0,0,1,22.26,10.51c1.07,1.72,3.34,6.08,1.44,9.95a13.38,13.38,0,0,1,.94,2.93,4.58,4.58,0,0,1-2.07,3.42,12,12,0,0,1-2.18,1.05,8,8,0,0,0-2.72,1.52c-3.17,2.85-7.49,6.21-12.8,6.88A17.23,17.23,0,0,1,242.77,71.3ZM231,53a2.22,2.22,0,0,1,1.11.27.5.5,0,0,1,.26.47.49.49,0,0,1-.31.43,10.73,10.73,0,0,0-5.8,5.65,5.27,5.27,0,0,0-.45,3.47,4.68,4.68,0,0,0,1.36,2.1A14.86,14.86,0,0,0,233,68.33c3.77,1.21,7.8,2.36,11.82,1.85,5-.64,9-3.71,12.25-6.63a8.89,8.89,0,0,1,3-1.71,11.15,11.15,0,0,0,2-1,3.66,3.66,0,0,0,1.62-2.66,17.27,17.27,0,0,0-.92-2.64.48.48,0,0,1,0-.48c1.83-3.45-.31-7.55-1.31-9.15A22.51,22.51,0,0,0,240.18,35.9c-3.84.49-7,2.07-8.83,4.4a20.61,20.61,0,0,1,5.38,0,.5.5,0,0,1,.43.43.5.5,0,0,1-.3.53,17.63,17.63,0,0,0-9.77,10.67,1.72,1.72,0,0,0-.1,1.18c.25.55,1.18.57,1.94.36l.32-.1A6.1,6.1,0,0,1,231,53Z" fill="#231f20"/><path d="M230.21,142.73s18.08,40,15,47.82-33.44,47.1-33.44,47.1L195.66,224s28.39-37.41,27.22-40-15.22-29.69-15.22-29.69l-76.37,83.28-7.7-20,61.9-88.83Z" fill="#231f20"/><path d="M211.79,238.15a.54.54,0,0,1-.32-.11l-16.13-13.67a.5.5,0,0,1-.07-.68c10.69-14.1,27.51-37.3,27.14-39.54-1-2.31-12.74-24.89-14.86-29L131.66,237.9a.5.5,0,0,1-.84-.15l-7.7-20a.48.48,0,0,1,.06-.46l61.9-88.84a.5.5,0,0,1,.56-.19l44.72,14a.49.49,0,0,1,.31.27c.74,1.64,18.13,40.27,15,48.21S213.43,236.35,212.19,238a.47.47,0,0,1-.34.19Zm-15.44-14.24,15.37,13c3.26-4.22,30.21-39.31,33-46.56s-13.53-44.14-14.91-47.23l-44.16-13.81-61.54,88.31,7.32,19L207.29,154a.47.47,0,0,1,.44-.16.48.48,0,0,1,.37.26c.58,1.11,14.07,27.13,15.23,29.71S203.36,214.66,196.35,223.91Z" fill="#231f20"/><path d="M230.21,142.73l-44.72-14L227.44,74S248.33,84,250.87,88.08,230.21,142.73,230.21,142.73Z" fill="#fff"/><path d="M230.21,143.23a.4.4,0,0,1-.15,0l-44.72-14a.5.5,0,0,1-.33-.33.49.49,0,0,1,.08-.45L227,73.66a.51.51,0,0,1,.62-.15c.86.41,21,10.19,23.63,14.3s-18.24,49.92-20.62,55.12A.51.51,0,0,1,230.21,143.23Zm-43.89-14.75,43.62,13.64c8.93-19.51,22.24-51,20.5-53.78-2.25-3.58-20.06-12.39-22.85-13.75Z" fill="#231f20"/><path d="M238.66,73.42c-.82,0-4.89,9.22-5.31,10-4,7.43-7.71,15.19-11.9,22.43-8.3,14.34-26.36,23-40.38,30.45-1.86,1-3.91,2-6,1.62a8.5,8.5,0,0,1-3.87-2.27,45.52,45.52,0,0,1-11.28-15.33,4.42,4.42,0,0,1-.55-2.47,3.58,3.58,0,0,1,2.7-2.9c7.42-1.29,18.36-2.15,24.35-6,10-6.37,21.52-25.08,29.14-41.48C224.85,69.75,232.93,72.12,238.66,73.42Z" fill="#5aac45" class="target-color"/><path d="M264.85,85.85c.23.18-9,22.18-9.43,23.25-3.44,8.07-15.49,22.88-22.74,27.51,4.64-8.28,6-21.38,6.33-30.72.15-4.54,3.89-12.52,5.61-16.71.17-.41,1.63-13.54,1.44-13.66C246.08,75.54,259,81.19,264.85,85.85Z" fill="#5aac45" class="target-color"/><path d="M249,76.69l-2.59,8.82s-2.33,3.69-7.83.59-5.22-7.42-5.22-7.42l5.42-16.28s4.43-1.46,5.84-11.33c0,0,8.33,5.39,17.43,6.77,0,0-2.94,10.79-4.95,15.17S249,76.69,249,76.69Z" fill="#fff"/><path d="M242.63,87.83a8.81,8.81,0,0,1-4.3-1.3c-5.7-3.22-5.48-7.7-5.47-7.89l0-.12,5.42-16.28a.49.49,0,0,1,.32-.31s4.16-1.56,5.5-10.94a.5.5,0,0,1,.77-.34c.08.05,8.34,5.35,17.22,6.7a.47.47,0,0,1,.34.22.48.48,0,0,1,.07.4c-.12.45-3,10.89-5,15.25-1.85,4-6.72,4.07-8.2,4l-2.47,8.43a.27.27,0,0,1-.06.12A5.09,5.09,0,0,1,242.63,87.83Zm-8.77-9.06c0,.52.11,4.15,5,6.89,4.7,2.66,6.82.06,7.12-.37l2.57-8.74a.51.51,0,0,1,.53-.36c.06,0,5.76.6,7.6-3.39,1.72-3.73,4.15-12.32,4.77-14.55C254,57,247.1,53.14,245,51.89c-1.36,8.23-4.85,10.43-5.81,10.88Zm12.55,6.74h0Z" fill="#231f20"/><path d="M241.71,62.73a4.07,4.07,0,0,0-.72-2.44,7.28,7.28,0,0,0-1.78-1.63,3,3,0,0,0-1.18-.58,2.38,2.38,0,0,0-.92.07,3.08,3.08,0,0,0-1.85,1.09,3.61,3.61,0,0,0-.56,1.67,6.86,6.86,0,0,0,0,1.92,4.86,4.86,0,0,0,5.5,4.2" fill="#fff"/><path d="M239.48,67.58a5.37,5.37,0,0,1-5.33-4.69,7.23,7.23,0,0,1,.06-2,4.1,4.1,0,0,1,.64-1.89A3.61,3.61,0,0,1,237,57.66a2.86,2.86,0,0,1,1.12-.07,3.38,3.38,0,0,1,1.39.66A7.58,7.58,0,0,1,241.4,60a4.48,4.48,0,0,1,.81,2.74.52.52,0,0,1-.52.49.51.51,0,0,1-.48-.52,3.51,3.51,0,0,0-.63-2.13,6.6,6.6,0,0,0-1.65-1.51,2.51,2.51,0,0,0-1-.49,1.62,1.62,0,0,0-.73.06,2.61,2.61,0,0,0-1.56.89A3.3,3.3,0,0,0,235.2,61a6.53,6.53,0,0,0-.06,1.79,4.38,4.38,0,0,0,4.94,3.77.5.5,0,0,1,.56.42.51.51,0,0,1-.42.57A6.27,6.27,0,0,1,239.48,67.58Z" fill="#231f20"/><path d="M252.73,62s2,5.43,1,6.06-2.89-.42-2.89-.42" fill="#fff"/><path d="M253,68.71a5.72,5.72,0,0,1-2.35-.68.49.49,0,0,1-.2-.67.5.5,0,0,1,.68-.21c.55.3,1.85.79,2.37.45.25-.39-.31-3-1.22-5.48a.49.49,0,0,1,.29-.64.5.5,0,0,1,.64.3c1,2.65,1.89,6,.85,6.65A1.94,1.94,0,0,1,253,68.71Z" fill="#231f20"/><path d="M249,76.69s-4.55-1.45-6.27-3.36c0,0,.1,5.76,4.62,8.64Z" fill="#231f20"/><path d="M247.35,82.47a.56.56,0,0,1-.27-.08c-4.69-3-4.85-8.8-4.85-9a.48.48,0,0,1,.31-.47.49.49,0,0,1,.56.13c1.61,1.79,6,3.2,6.05,3.21a.49.49,0,0,1,.32.63l-1.64,5.28a.53.53,0,0,1-.3.32A.57.57,0,0,1,247.35,82.47Zm-4-7.91a10.45,10.45,0,0,0,3.71,6.61L248.37,77A21.6,21.6,0,0,1,243.37,74.56Z" fill="#231f20"/><path d="M247.11,58.3s2.39-1.7,3.49,1.36" fill="#fff"/><path d="M250.6,60.16a.51.51,0,0,1-.47-.33A2.08,2.08,0,0,0,249,58.39a2.05,2.05,0,0,0-1.55.32.5.5,0,0,1-.7-.12.49.49,0,0,1,.12-.69,3,3,0,0,1,2.43-.47,3,3,0,0,1,1.82,2.06.5.5,0,0,1-.47.67Z" fill="#231f20"/><path d="M255,62.11s2.11-2.6,3.46.47" fill="#fff"/><path d="M258.46,63.08a.5.5,0,0,1-.46-.3c-.22-.51-.59-1.12-1.1-1.19s-1.3.57-1.52.83a.5.5,0,1,1-.77-.63A3,3,0,0,1,257,60.6c.78.1,1.41.7,1.89,1.78a.51.51,0,0,1-.26.66A.71.71,0,0,1,258.46,63.08Z" fill="#231f20"/><path d="M255.69,70.14s-10,5.86-10-4.56" fill="#fff"/><path d="M250.26,72.29a5,5,0,0,1-2.51-.61c-1.7-1-2.57-3-2.58-6.09a.5.5,0,0,1,.5-.51h0a.51.51,0,0,1,.5.5c0,2.7.71,4.46,2.07,5.23,2.67,1.52,7.15-1.07,7.2-1.1a.5.5,0,0,1,.5.87A13,13,0,0,1,250.26,72.29Z" fill="#231f20"/><path d="M239.42,88.27l-4.69,1.37,1.59,3s-12,15.36-19.5,16a21.23,21.23,0,0,1-12.41-3l-8,3.75s7.28,6.23,7.75,6.72,12.53,4,20.71-5a122.74,122.74,0,0,0,13-17.14l2.79-1.22Z" fill="#231f20"/><path d="M219.34,105a.5.5,0,0,1-.49-.43l-2.2-14.82a.5.5,0,0,1,.34-.54l7.49-2.44L219.25,82a.5.5,0,0,1-.15-.47.51.51,0,0,1,.33-.37l11.25-3.89a.5.5,0,0,1,.33.95l-10.46,3.61,5.23,4.8a.5.5,0,0,1,.15.48.49.49,0,0,1-.33.37l-7.89,2.57,2.13,14.4a.5.5,0,0,1-.42.56Z" fill="#231f20"/><path d="M192.11,121.09H192c-.1,0-10.38-2.08-15.95-3.35a.49.49,0,0,1-.38-.59.5.5,0,0,1,.6-.38c5.56,1.26,15.82,3.32,15.93,3.34a.5.5,0,0,1,.39.59A.51.51,0,0,1,192.11,121.09Z" fill="#231f20"/><path d="M243.79,106.17a.5.5,0,0,1-.34-.87L254.71,95l-5-4.43a.48.48,0,0,1-.16-.42.49.49,0,0,1,.24-.39l7.05-4.06L252.24,82a.5.5,0,0,1-.08-.7.52.52,0,0,1,.71-.07L258,85.42a.52.52,0,0,1,.18.43.5.5,0,0,1-.25.39l-7.07,4.08,4.92,4.34A.52.52,0,0,1,256,95a.48.48,0,0,1-.17.37L244.12,106A.51.51,0,0,1,243.79,106.17Z" fill="#231f20"/><path d="M217,134.12a.5.5,0,0,1-.24-.06.51.51,0,0,1-.2-.68c.11-.2,11.05-20,16.44-30.69a.5.5,0,1,1,.89.45c-5.39,10.72-16.34,30.52-16.45,30.72A.49.49,0,0,1,217,134.12Z" fill="#d1d3d4"/><path d="M123.59,217.57l-8.88,11s6.2,29,10.12,25.79,6.46-16.76,6.46-16.76Z" fill="#fff"/><path d="M124.19,255.09a1.46,1.46,0,0,1-.49-.09c-4-1.4-8.94-23.81-9.48-26.36a.5.5,0,0,1,.1-.42l8.88-11a.48.48,0,0,1,.46-.18.5.5,0,0,1,.39.31l7.71,20a.49.49,0,0,1,0,.27c-.1.56-2.62,13.73-6.63,17.06A1.47,1.47,0,0,1,124.19,255.09Zm-9-26.42c2,9.44,6.17,24.48,8.79,25.39a.45.45,0,0,0,.48-.11c3.53-2.93,6-14.91,6.26-16.34l-7.34-19.05Z" fill="#231f20"/><path d="M221.15,65.32S213.57,91,206.62,97.81s-22,15.11-20.18,11.18,10.58-7.15,16.74-18.43,10.18-27,10.18-27-.55-2.78,3.54-1.85S221.15,65.32,221.15,65.32Z" fill="#231f20"/><path d="M245.66,123.93a76.25,76.25,0,0,0,12.54-16.24c4.37-7.66,7.71-18.28,8.91-22.37A2.11,2.11,0,0,0,266,82.83l-1.37-.69a2.12,2.12,0,0,0-3,1.33C259.73,90.41,253.84,110.26,245.66,123.93Z" fill="#231f20"/><path d="M191.07,88.42c.69.78,7.31,5,7.31,5s2.9-4.06,5.79-4.68L202.36,92l9.18.13s0,8.68-8.07,10.46S181.59,96,181.59,96" fill="#fff"/><path d="M201,103.33c-8.18,0-19.15-6.63-19.66-6.94a.49.49,0,0,1-.17-.69.5.5,0,0,1,.69-.16c.13.08,13.69,8.26,21.51,6.55,6.62-1.45,7.54-7.66,7.66-9.48l-8.67-.12a.49.49,0,0,1-.42-.25.52.52,0,0,1,0-.5l1.15-2a15.85,15.85,0,0,0-4.29,4,.48.48,0,0,1-.67.13c-.69-.44-6.7-4.29-7.42-5.1a.49.49,0,0,1,.05-.7.48.48,0,0,1,.7,0c.45.5,4.26,3,6.81,4.67.83-1.06,3.28-4,5.82-4.5a.49.49,0,0,1,.5.2.5.5,0,0,1,0,.54l-1.4,2.5,8.34.12a.49.49,0,0,1,.49.49c0,.1,0,9.12-8.46,11A12.1,12.1,0,0,1,201,103.33Z" fill="#231f20"/><path d="M265.61,116.7l-6-3.65-1.42-5.36-2.78,3.16s-4-3.3-6.52-2.1c-2,1-3,6.12-1,8.7s13.53,8.69,13.53,8.69" fill="#fff"/><path d="M261.41,126.64a.46.46,0,0,1-.23-.06c-.48-.25-11.7-6.18-13.69-8.83-1.37-1.8-1.35-4.49-.91-6.24a4.61,4.61,0,0,1,2.1-3.21c2.36-1.1,5.57,1,6.68,1.86l2.47-2.8a.5.5,0,0,1,.86.2l1.36,5.17,5.82,3.54a.5.5,0,0,1,.16.69.49.49,0,0,1-.68.17l-6-3.65a.48.48,0,0,1-.22-.3L258,108.72l-2.16,2.46a.51.51,0,0,1-.7,0c-1-.86-4.13-2.9-6-2a3.77,3.77,0,0,0-1.56,2.55,6.85,6.85,0,0,0,.73,5.4c1.87,2.47,13.25,8.49,13.37,8.55a.49.49,0,0,1,.2.67A.49.49,0,0,1,261.41,126.64Z" fill="#231f20"/><path d="M58.17,203.22a.55.55,0,0,1-.28-.07.53.53,0,0,1-.16-.72L120,104a.53.53,0,0,1,.72-.16.52.52,0,0,1,.16.71L58.6,203A.49.49,0,0,1,58.17,203.22Z" fill="#d1d3d4"/><path d="M98.41,197.32a.39.39,0,0,1-.18,0,.51.51,0,0,1-.3-.66L131.55,109a.51.51,0,0,1,.66-.3.52.52,0,0,1,.3.67L98.9,197A.53.53,0,0,1,98.41,197.32Z" fill="#d1d3d4"/><path d="M232.06,265.25a.5.5,0,0,1-.26-.08.52.52,0,0,1-.18-.71l54.69-90.2a.51.51,0,0,1,.71-.18.52.52,0,0,1,.17.71L232.51,265A.53.53,0,0,1,232.06,265.25Z" fill="#d1d3d4"/><path d="M273,261.89l-.15,0a.53.53,0,0,1-.34-.65c2.61-8.53,25.48-83.36,25.88-84.18a.51.51,0,0,1,.68-.24.52.52,0,0,1,.25.68c-.5,1.27-17.1,55.51-25.83,84A.5.5,0,0,1,273,261.89Z" fill="#d1d3d4"/><path d="M260.3,257.23a.43.43,0,0,1-.19,0,.53.53,0,0,1-.29-.67l19.32-48a.53.53,0,0,1,.67-.29.52.52,0,0,1,.29.68l-19.32,48A.5.5,0,0,1,260.3,257.23Z" fill="#d1d3d4"/><path d="M86.59,180.88a.47.47,0,0,1-.25-.07.51.51,0,0,1-.2-.7l23.92-42.85a.52.52,0,0,1,.71-.2.53.53,0,0,1,.2.71L87,180.62A.52.52,0,0,1,86.59,180.88Z" fill="#d1d3d4"/><path d="M82.1,213.18a.43.43,0,0,1-.19,0,.51.51,0,0,1-.28-.68l6.25-15a.53.53,0,0,1,.68-.28.53.53,0,0,1,.27.68l-6.25,15A.51.51,0,0,1,82.1,213.18Z" fill="#d1d3d4"/><path d="M243,265.77a.45.45,0,0,1-.25-.07.51.51,0,0,1-.2-.7l10.29-18.66a.51.51,0,1,1,.9.5L243.44,265.5A.51.51,0,0,1,243,265.77Z" fill="#d1d3d4"/></g></svg>