<svg xmlns="http://www.w3.org/2000/svg" width="130" height="37" viewBox="0 0 130 37">
  <defs>
    <linearGradient id="logo-白色-a" x1="-5.966%" x2="36.821%" y1="-57.361%" y2="31.737%">
      <stop offset="44%" stop-color="#2DD765"/>
      <stop offset="100%" stop-color="#07C160"/>
    </linearGradient>
    <linearGradient id="logo-白色-b" x1="45.079%" x2="55.042%" y1="16.936%" y2="91.274%">
      <stop offset="44%" stop-color="#2DD765"/>
      <stop offset="100%" stop-color="#07C160"/>
    </linearGradient>
    <linearGradient id="logo-白色-c" x1="41.98%" x2="74.253%" y1="78.704%" y2="21.366%">
      <stop offset="0%" stop-color="#E5E5E5"/>
      <stop offset="100%" stop-color="#2DD765"/>
    </linearGradient>
  </defs>
  <g fill="none" fill-rule="evenodd">
    <rect width="130" height="37" fill="#D8D8D8" opacity="0"/>
    <g fill-rule="nonzero" transform="translate(.28 2.186)">
      <path fill="url(#logo-白色-a)" d="M59.6067841,30.0774083 L62.6368873,27.1460723 L62.9201442,26.8628154 C63.0140367,26.7654454 63.1000307,26.6607571 63.1773116,26.549742 C63.2518638,26.4406719 63.314348,26.3238264 63.3636648,26.2012615 C63.4712202,25.9411496 63.4651394,25.6479179 63.346893,25.3924885 C63.2885032,25.271488 63.206811,25.1631984 63.1064974,25.0738246 C63.0008227,24.984567 62.8795031,24.9156928 62.7486992,24.8706996 C62.6082716,24.8230958 62.4609079,24.7991649 62.3126327,24.7998853 C62.0144929,24.7880588 61.7231241,24.8907379 61.4982692,25.0868693 C61.2803405,25.2879467 61.1431938,25.5615774 61.112518,25.856508 L59.7241866,25.7465596 C59.746025,25.4150171 59.8341038,25.0912164 59.9832176,24.7942947 C60.1191737,24.5278088 60.3096481,24.2928904 60.5422772,24.1047879 C60.778354,23.9176722 61.0468152,23.7755457 61.3342784,23.6854931 C61.6518505,23.5884261 61.9824363,23.5406609 62.3144962,23.5438647 C62.6487416,23.5405295 62.9816191,23.5870067 63.3021683,23.6817661 C63.5916595,23.7656095 63.8624046,23.904145 64.09976,24.0898796 C64.331247,24.2736289 64.5163559,24.509164 64.6401843,24.7775229 C64.7781958,25.0854775 64.8456834,25.420369 64.8377187,25.7577408 C64.8497494,26.2053326 64.7333489,26.647008 64.5022829,27.0305333 C64.2610714,27.4075546 63.970237,27.7504134 63.637604,28.0498853 L61.22433,30.2861239 L64.8377187,30.2861239 L64.8377187,31.4769209 L59.6198288,31.4769209 L59.6067841,30.0774083 Z"/>
      <path fill="url(#logo-白色-b)" d="M30.4201442,23.5625 C34.0760477,30.5726488 42.2782038,33.8944607 49.7818461,31.4038443 C57.2854884,28.913228 61.8733864,21.3461287 60.611866,13.5412339 C59.3503456,5.73633906 52.6121699,0 44.7059813,0 C39.0445708,0 34.9205742,3.28168005 34.2552933,3.85005734 C31.6714301,6.12542072 29.9280935,9.20382765 29.305752,12.5900229 C29.0802646,13.8106365 28.521205,18.0259461 28.3106258,19.587586 M44.7097084,28.9052468 C39.5397159,28.9060003 34.8783751,25.792252 32.8993824,21.0160181 C30.9203896,16.2397842 32.0135004,10.7417268 35.6689706,7.08572352 C39.3244409,3.42972024 44.8223388,2.33580782 49.5988613,4.31410418 C54.3753837,6.29240053 57.4898116,10.9532873 57.4898116,16.1232798 C57.485696,23.1800803 51.7627827,28.8979881 44.7059813,28.8959289 L44.7097084,28.9052468 Z"/>
      <path fill="#E4E4E4" d="M28.3106258,19.5950401 C27.4515375,24.6116686 23.4486706,28.9127007 16.1324435,28.9127007 C10.6882397,28.9142053 5.84055816,25.4671056 4.05442545,20.324238 C2.26829273,15.1813704 3.93574787,9.471545 8.20889663,6.0981851 C12.4820453,2.72482521 18.4229725,2.42835097 23.0107405,5.35951835 C23.124416,5.4321961 23.2287738,5.50487385 23.3294045,5.57568807 C23.7170192,5.87012615 24.0748173,6.17947248 24.3692554,6.44595757 L24.5313827,6.59504014 L24.5313827,6.59504014 C24.8612279,6.88388762 25.1202589,7.09633028 25.2917038,7.13360092 C25.6837397,7.26769277 26.1127808,7.24225819 26.4862279,7.0627867 C27.1999607,6.69008028 27.2670479,5.88689794 27.2800926,5.7396789 C27.4832176,3.54630161 21.5925926,0.909403669 20.8658151,0.728641055 C19.3244191,0.289964845 17.7328748,0.051953496 16.13058,0.0204877426 C8.21722528,0.013972454 1.46993878,5.75382409 0.207773892,13.5658767 C-1.054391,21.3779292 3.54204853,28.9505454 11.054833,31.4363642 C18.5676175,33.9221829 26.7736649,30.5856343 30.4201442,23.5625"/>
      <path fill="url(#logo-白色-c)" d="M31.9165605,16.1102351 C31.9167685,15.3893734 31.9791171,14.6698712 32.1029137,13.959719 C32.2381209,13.1639221 32.4483966,12.3827197 32.730924,11.6265768 L32.730924,5.39492546 C30.989705,7.44137454 29.8106335,9.90547969 29.309479,12.5452982 C29.0821281,13.7659117 28.5156144,18.0203555 28.3050352,19.5819954 C27.4459469,24.6004874 23.4859412,28.8903383 16.1697141,28.8903383 L16.1697141,32.2241973 C22.1619036,32.2114914 27.652283,28.8752013 30.4238712,23.5625 C31.2597515,21.1583242 31.7619932,18.6508779 31.9165605,16.1102351 L31.9165605,16.1102351 Z"/>
      <path fill="#FFF" d="M75.7785157,18.9372133 L73.8628047,18.9372133 C71.911692,18.9310519 70.3332652,17.3476248 70.3332749,15.3965023 L70.3332749,10.5121846 L71.8445995,10.5121846 L71.8445995,15.40582 C71.8456248,16.5203209 72.7483052,17.4238349 73.8628047,17.4258888 L74.2616006,17.4258888 L74.2616006,10.0276663 C74.2605734,9.65994052 73.9621833,9.36238389 73.5944561,9.36238532 L69.7145823,9.36238532 L73.614955,3.21272936 L74.8914745,4.02336583 L72.4614286,7.85478785 L73.5944561,7.85478785 C74.1722226,7.85330322 74.7269148,8.08139723 75.1365059,8.4888914 C75.5460969,8.89638556 75.7770349,9.44989979 75.7785157,10.0276663 L75.7785157,18.9372133 Z"/>
      <rect width="6.407" height="1.511" x="70.205" y="2.428" fill="#FFF"/>
      <rect width="9.265" height="1.511" x="78.015" y="3.969" fill="#FFF"/>
      <rect width="11.731" height="1.511" x="76.524" y="6.985" fill="#FFF"/>
      <rect width="1.511" height="3.256" x="77.67" y="2.225" fill="#FFF"/>
      <rect width="1.511" height="3.919" x="82.016" y="1.564" fill="#FFF"/>
      <rect width="1.511" height="3.256" x="86.201" y="2.225" fill="#FFF"/>
      <path fill="#FFF" d="M77.3084756 18.4396502L76.227627 17.3848911C79.6118013 13.9243119 79.6062107 6.11052179 79.6062107 5.89248853L81.1156717 5.88317087C81.1175352 6.37327982 81.1268529 14.5336869 77.3084756 18.4396502zM81.9617153 14.6194094L80.5342497 14.1255734C80.8912011 13.1241176 81.120362 12.0816236 81.2163024 11.0227924L82.7238999 11.0936067C82.6253114 12.2971769 82.3690581 13.4825836 81.9617153 14.6194094zM86.9019389 14.6883601L85.4670192 14.21875C85.8339761 13.1389183 86.1143916 12.0315887 86.3056086 10.9072535L87.7964343 11.1308773C87.5950885 12.3389693 87.2959396 13.5287093 86.9019389 14.6883601zM93.3814401 9.88976489L93.3814401 8.3803039C94.6911862 8.37927624 95.7526888 7.31777368 95.7537164 6.00802752L95.7537164 3.27422592 91.2290605 3.27422592 91.2290605 1.76290138 97.265041 1.76290138 97.265041 6.00802752C97.2619596 8.15130166 95.5247154 9.88771219 93.3814401 9.88976489zM93.3814401 17.5861525L93.3814401 16.0766915C94.6914876 16.0746369 95.7526906 15.0126004 95.7537164 13.7025516L95.7537164 10.7563074 97.265041 10.7563074 97.265041 13.7025516C97.2629863 15.8465535 95.525442 17.5840979 93.3814401 17.5861525z"/>
      <rect width="1.511" height="17.877" x="90.991" y="1.75" fill="#FFF"/>
      <rect width="3.438" height="1.511" x="113.017" y="1.673" fill="#FFF"/>
      <rect width="1.511" height="1.627" x="122.253" y="1.509" fill="#FFF"/>
      <path fill="#FFF" d="M111.944083,19.5652244 L111.558332,19.5652244 L111.558332,18.0538991 L111.951537,18.0538991 C113.495338,18.0538991 114.746835,16.8024015 114.746835,15.2586009 L114.746835,5.66700115 L111.597466,5.66700115 L111.597466,4.15754014 L116.256297,4.15754014 L116.256297,15.2604645 C116.253211,17.6395491 114.32317,19.5662542 111.944083,19.5652244 L111.944083,19.5652244 Z"/>
      <rect width="1.511" height="16.902" x="98.135" y="1.793" fill="#FFF"/>
      <path fill="#FFF" d="M107.549874,18.6968177 L106.040413,18.6968177 L106.040413,4.44825115 C106.039387,3.808514 105.521034,3.29016022 104.881297,3.28913418 L98.8956316,3.28913418 L98.8956316,1.77780963 L104.881297,1.77780963 C106.354987,1.77986463 107.548848,2.97455971 107.549874,4.44825115 L107.549874,18.6968177 Z"/>
      <rect width="8.615" height="1.511" x="98.894" y="6.686" fill="#FFF"/>
      <rect width="11.09" height="1.511" x="117.464" y="2.844" fill="#FFF"/>
      <rect width="8.615" height="1.511" x="98.894" y="11.614" fill="#FFF"/>
      <rect width="13.429" height="1.511" x="95.948" y="18.043" fill="#FFF"/>
      <path fill="#FFF" d="M129.539553,19.5354071 L117.625993,19.5354071 C116.034368,19.5333564 114.744324,18.244146 114.741245,16.6525229 L114.741245,14.8374427 L116.252569,14.8374427 L116.252569,16.6525229 C116.253596,17.410618 116.867898,18.0249196 117.625993,18.0259461 L129.539553,18.0259461 L129.539553,19.5354071 Z"/>
      <path fill="#FFF" d="M119.592019 16.9954129L118.35277 16.130734C121.218883 12.0160551 120.736228 4.20412844 120.730637 4.12399656L122.238235 4.02336583C122.26246 4.3643922 122.761887 12.4428039 119.592019 16.9954129zM118.85406 12.5993406L117.22347 12.5993406C117.779948 10.802976 118.116598 8.94577292 118.22605 7.06837729L119.57152 7.06837729C119.57152 7.17832569 119.621835 10.6016342 118.85406 12.5993406zM122.366818 17.1724484L121.807759 17.1724484 121.807759 15.6611239 122.366818 15.6611239C123.327666 15.6600968 124.10633 14.8814323 124.107357 13.9205849L124.107357 3.82769496 125.618682 3.82769496 125.618682 13.9187213C125.617655 15.7145523 124.162648 17.1703928 122.366818 17.1724484L122.366818 17.1724484zM126.144198 7.15409977C126.682759 9.61582569 127.113235 12.330992 127.012604 15.5698108L128.876136 15.584719C128.810912 11.8352924 128.251853 9.16298739 127.616388 7.15409977L126.144198 7.15409977zM80.2267669 19.4515482L79.6919332 17.9812213C82.0996167 17.0923165 83.396635 14.1702982 83.396635 11.8725631L83.396635 9.07726491 84.9638655 9.07726491 84.9638655 11.8725631C84.9545479 14.7703555 83.3314114 18.3036124 80.2267669 19.4515482z"/>
      <path fill="#FFF" d="M88.0610559 19.6770356C84.7066981 18.1862099 83.4189974 14.1237099 83.364955 13.9522649L84.8557806 13.4863819C84.8669618 13.521789 85.9999894 17.0513188 88.6890662 18.2439794L88.0610559 19.6770356zM83.9370593 30.03082L83.0854251 30.03082 83.0854251 29.190367C82.4642478 29.8761468 81.7461667 30.2196579 80.931182 30.2209002 80.1400256 30.2295113 79.3822786 29.9024408 78.8458896 29.3208142 78.2788502 28.7530724 77.9656187 27.9800762 77.9774836 27.1777523 77.9654832 26.3774134 78.280456 25.6068069 78.8496167 25.044008 79.4040803 24.4642249 80.1756653 24.1426186 80.9777703 24.1569668 81.8007253 24.1500048 82.5799402 24.5268665 83.0854251 25.1763188L83.0854251 24.3041858 83.9370593 24.3041858 83.9370593 30.03082zM80.9964056 29.4009461C81.5625784 29.4074374 82.1062207 29.1794584 82.4984125 28.7710723 82.9168315 28.3570845 83.1454697 27.7885241 83.1301499 27.2001147 83.1453573 26.6122417 82.9214309 26.0433475 82.5095937 25.6235665 82.1143763 25.2088188 81.5636309 24.9783842 80.9908151 24.9881021 80.4138397 24.9784723 79.8605854 25.2174239 79.4720364 25.6440654 79.0681322 26.0583845 78.8449749 26.6159426 78.8514802 27.1945241 78.8452493 27.7752195 79.0729257 28.3340004 79.4832176 28.7449828 79.8713197 29.1689592 80.4216571 29.4075291 80.9964056 29.4009461L80.9964056 29.4009461zM87.8243873 24.3787271L87.3734125 25.1148223C87.2673548 25.0553452 87.1483569 25.0227167 87.0267956 25.0197821 86.7908194 25.0273372 86.5723738 25.1462379 86.4379194 25.3403096 86.2462266 25.5881214 86.111354 25.8750436 86.0428506 26.1807626 85.9335329 26.7999648 85.8898087 27.4289676 85.9124034 28.0573395L85.9124034 30.03082 85.0290891 30.03082 85.0290891 24.2948681 85.9124034 24.2948681 85.9124034 24.9135608C86.0537842 24.6910274 86.2336207 24.4954157 86.44351 24.3358658 86.6221273 24.2115064 86.8352632 24.1463273 87.052885 24.1495126 87.3249586 24.161491 87.5899091 24.2402082 87.8243873 24.3787271zM89.4736132 25.1353211C90.0051225 24.5258168 90.7683292 24.1677637 91.5768039 24.148624 92.3852785 24.1294843 93.1645737 24.4510204 93.72433 25.0346904 94.8751284 26.2340013 94.8685352 28.1295378 93.7094217 29.3208142 93.1637776 29.9019 92.3987999 30.226559 91.6017669 30.2153096 90.7805704 30.2153096 90.0711858 29.8575115 89.4736132 29.1419151L89.4736132 30.03082 88.6238426 30.03082 88.6238426 22.140625 89.4736132 22.140625 89.4736132 25.1353211zM91.5663598 29.3692661C92.1441112 29.3769853 92.697313 29.1360201 93.0851384 28.7077122 93.9116781 27.8423144 93.9182222 26.4819681 93.1000467 25.6086583 92.7133381 25.1753108 92.1563506 24.9329055 91.5756774 24.9452408 91.0022258 24.9308478 90.4486325 25.1556607 90.0475811 25.565797 89.6374186 25.9794234 89.4150917 26.5433252 89.4326155 27.1255734 89.4167803 27.7207316 89.6403214 28.2973735 90.0531717 28.7263475 90.4424826 29.1470945 90.9932534 29.3811042 91.5663598 29.3692661L91.5663598 29.3692661zM98.4595651 24.1476491C99.2558504 24.1355164 100.020365 24.4595896 100.565356 25.040281 101.721491 26.2333507 101.726432 28.1273193 100.576537 29.3264048 100.017718 29.8949267 99.2539499 30.2151473 98.4567698 30.2151473 97.6595896 30.2151473 96.8958213 29.8949267 96.337002 29.3264048 95.180111 28.1318939 95.180111 26.2347919 96.337002 25.040281 96.8866215 24.4562015 97.6577027 24.1319277 98.4595651 24.1476491zM98.4595651 29.3804473C99.0240131 29.3889936 99.5656802 29.158108 99.9503912 28.7449828 100.353583 28.3374499 100.575305 27.7844868 100.565356 27.2112959 100.572688 26.6298316 100.347242 26.0695701 99.9392092 25.6552466 99.5594447 25.2327594 99.0164394 24.993837 98.4483839 24.9992833 97.8849606 24.9954653 97.3471841 25.2344771 96.9724664 25.6552466 96.5669657 26.0723138 96.343746 26.6333794 96.3519102 27.2150229 96.3392943 27.7860346 96.5545427 28.3385726 96.950104 28.7505734 97.3398931 29.1669293 97.889444 29.396248 98.4595651 29.3804473L98.4595651 29.3804473zM107.644915 30.03082L106.783963 30.03082 106.783963 27.2895642C106.80026 26.8583673 106.770272 26.4266659 106.694513 26.0018635 106.643935 25.794523 106.554798 25.5985493 106.431755 25.4241686 106.319645 25.2684623 106.166848 25.1466111 105.990098 25.071961 105.783303 24.9900324 105.562086 24.9507331 105.339725 24.956422 105.079921 24.9579869 104.824288 25.0218951 104.594313 25.1427752 104.347928 25.2689884 104.132757 25.4485093 103.964439 25.6682913 103.792652 25.8781784 103.665796 26.1211068 103.591732 26.3820241 103.506844 26.8816796 103.473746 27.3887615 103.492965 27.8952122L103.492965 30.03082 102.613378 30.03082 102.613378 24.2948681 103.485511 24.2948681 103.485511 25.15582C104.052025 24.4837061 104.72476 24.1476491 105.503716 24.1476491 105.899553 24.1442911 106.287895 24.2556159 106.621835 24.4681766 106.956811 24.6801915 107.220393 24.9879207 107.37843 25.3514908 107.546147 25.7241973 107.630006 26.3000287 107.630006 27.0789851L107.644915 30.03082zM112.014897 24.9676032L111.455838 25.5452982C111.042134 25.1601682 110.663837 24.9676032 110.320947 24.9676032 110.119064 24.9614535 109.922889 25.0351028 109.774932 25.1725918 109.631791 25.3002357 109.551483 25.4839914 109.555035 25.6757454 109.556501 25.878401 109.646337 26.070325 109.801021 26.2012615 110.070388 26.4217662 110.365033 26.6094384 110.678745 26.7603211 111.045464 26.9414417 111.375321 27.1891506 111.651509 27.4908257 111.881066 27.7635001 112.002431 28.1110164 111.992535 28.4673165 112.002483 28.9340546 111.817444 29.3838189 111.481927 29.7084289 111.150007 30.0415605 110.69605 30.2240863 110.225907 30.2134461 109.539278 30.2169385 108.893452 29.8877754 108.492822 29.3301319L109.038837 28.7207569C109.411543 29.1630352 109.797294 29.3835531 110.19609 29.3823108 110.449023 29.3871116 110.693806 29.2928101 110.878143 29.1195528 111.057746 28.9656964 111.161205 28.7410802 111.1614 28.5045872 111.165892 28.2801377 111.071925 28.0649658 110.904232 27.915711 110.634395 27.6930645 110.337629 27.5052376 110.020918 27.3566514 109.661746 27.1903671 109.340258 26.9525804 109.076107 26.6578268 108.851597 26.3712002 108.737813 26.0133098 108.75558 25.649656 108.750327 25.2457941 108.916187 24.8585624 109.212145 24.5837156 109.540474 24.2814523 109.975729 24.1225068 110.421577 24.1420585 110.922246 24.1457856 111.453353 24.4209671 112.014897 24.9676032zM115.745689 25.0514622L114.610798 25.0514622 114.610798 29.0655103C114.610798 29.2127294 114.631297 29.3021789 114.674158 29.333859 114.773461 29.3759394 114.881862 29.3919751 114.989095 29.3804473L115.745689 29.3804473 115.745689 30.1258601C115.408261 30.178504 115.067749 30.2090069 114.726337 30.2171732 114.454575 30.2387367 114.185665 30.1493241 113.980924 29.9693234 113.801788 29.7497624 113.715523 29.4689013 113.740528 29.1866399L113.740528 25.0514622 112.752856 25.0514622 112.752856 24.2948681 113.740528 24.2948681 113.740528 22.140625 114.612661 22.140625 114.612661 24.2948681 115.747552 24.2948681 115.745689 25.0514622zM119.385167 24.1476491C120.181452 24.1355164 120.945967 24.4595896 121.490958 25.040281 122.644205 26.2345233 122.64914 28.1261618 121.502139 29.3264048 120.941998 29.8931692 120.178297 30.2121367 119.38144 30.2121367 118.584583 30.2121367 117.820882 29.8931692 117.26074 29.3264048 116.106763 28.1307155 116.106763 26.2359703 117.26074 25.040281 117.811071 24.4561076 118.58275 24.1318669 119.385167 24.1476491zM119.385167 29.3804473C119.949707 29.3894644 120.491558 29.1585006 120.875993 28.7449828 121.279185 28.3374499 121.500907 27.7844868 121.490958 27.2112959 121.498164 26.6302149 121.273496 26.0702208 120.866675 25.6552466 120.48801 25.2378035 119.950631 24.9997335 119.38703 24.9997335 118.82343 24.9997335 118.286051 25.2378035 117.907386 25.6552466 117.503264 26.0730663 117.280849 26.6337948 117.288693 27.2150229 117.276077 27.7860346 117.491326 28.3385726 117.886887 28.7505734 118.273784 29.1643784 118.818816 29.3935091 119.385167 29.3804473L119.385167 29.3804473zM124.426021 25.1670012C124.928611 24.5180362 125.705425 24.1410021 126.526222 24.1476491 127.327082 24.1341182 128.097202 24.4556768 128.650649 25.0346904 129.220486 25.5993313 129.535444 26.3719192 129.522782 27.1740252 129.534854 27.9753011 129.223876 28.7477068 128.659966 29.3170872 128.125003 29.8967607 127.368998 30.221924 126.580264 30.2115826 125.766522 30.2115826 125.048441 29.8680715 124.426021 29.1810493L124.426021 32.0490252 123.563206 32.0490252 123.563206 24.2948681 124.426021 24.2948681 124.426021 25.1670012zM126.526222 29.4009461C127.091164 29.4024824 127.631272 29.1688855 128.017048 28.756164 128.859605 27.8880099 128.864545 26.5089157 128.028229 25.6347477 127.628381 25.2234968 127.079796 24.9905485 126.506209 24.9884163 125.932623 24.9863412 125.382344 25.2152595 124.97949 25.6235665 124.571469 26.0431387 124.349779 26.6094559 124.364525 27.1945241 124.350096 27.7827726 124.578598 28.3509929 124.996262 28.7654817 125.394925 29.1819644 125.949804 29.4124319 126.526222 29.4009461L126.526222 29.4009461zM76.1512222 26.9969897L77.2693414 27.278383C77.0370211 28.1890291 76.6183475 28.8847477 76.0133208 29.365539 75.3785998 29.8539164 74.5943453 30.1074328 73.793854 30.0829989 72.8881774 30.0829989 72.1520823 29.8966457 71.5855685 29.5239392 71.0014256 29.1341235 70.549706 28.575811 70.2904137 27.9231651 69.9926191 27.2102664 69.8417673 26.4445984 69.846893 25.6720184 69.8288945 24.8801309 70.0007839 24.0954461 70.3481832 23.3836009 70.6597945 22.7519839 71.1581516 22.2315065 71.7756488 21.8927752 72.3995769 21.5528547 73.1001504 21.3783529 73.8106258 21.3858945 74.5682077 21.3605713 75.3129805 21.5859028 75.9294618 22.0269496 76.518699 22.4779571 76.940426 23.1128432 77.127713 23.8308486L76.0319561 24.0898796C75.8957695 23.5678654 75.5999929 23.1013984 75.1859125 22.7555906 74.7793163 22.4649081 74.2877241 22.3174304 73.7882634 22.3362959 73.2134834 22.3152458 72.6469318 22.4777704 72.1707176 22.8003154 71.7394373 23.1065207 71.4185267 23.5437695 71.2557233 24.0470184 71.0807379 24.5663925 70.9919776 25.1109149 70.9929653 25.6589736 70.9809067 26.2941871 71.0870689 26.926105 71.3060387 27.5225057 71.484322 28.0185215 71.8260592 28.439121 72.2750754 28.7151663 72.7051292 28.9765091 73.1993143 29.113281 73.702541 29.1102351 74.2769767 29.1269384 74.8381321 28.9356956 75.2828162 28.5716743 75.7403085 28.15872 76.0460822 27.6042591 76.1512222 26.9969897z"/>
    </g>
  </g>
</svg>
