<svg xmlns="http://www.w3.org/2000/svg" width="275.48" height="27.916" viewBox="0 0 275.48 27.916">
  <g id="组_22" data-name="组 22" transform="translate(-120.882 -90.127)">
    <path id="路径_1024" data-name="路径 1024" d="M255.484,91.076c-.69.157-3.547.74-4.862.943-2.009.312-5.368.55-5.4.55l-.446.025.172.364a11.823,11.823,0,0,0,1.2,2.121c.513.552,2.406.225,3.669.339s8.885-1.437,9.747-1.612l.087-.014.062-.052c.025-.025.783-.035.6-1.032a6.163,6.163,0,0,0-1.645-2.1c-.645-.356-.85-.054-3.181.473" transform="translate(132.215 0.343)" fill="#6c0"/>
    <path id="路径_1025" data-name="路径 1025" d="M216.81,91.08l-.077.081,0,.114c0,.008-.405,1.11-.721,1.749a14.9,14.9,0,0,1-1.912,2.964s-1.331,1.559-1.817,1.98c-.533.463-.515.852-.362,1.6.138.668.575.7,1.011.74a12.137,12.137,0,0,1,2.33.225A12.573,12.573,0,0,1,214,102.572c-.74.916-1.631,2.034-2.27,2.838a1.223,1.223,0,0,0-.014,1.226,3.948,3.948,0,0,0,.622.953c.978,1.133,1.691.575,2.842-.074l1.91-.843c.837-.461.785-.391.972-.843.114-.281-.384-.85-.521-1.083-.227-.376-.932-.19-1.6.058a2.6,2.6,0,0,1-.889.234l1.284-1.654,1.637-1.922c.633-.974.475-.955.461-1.373-.029-.734-.072-1.246-1.718-1.65a3.579,3.579,0,0,1-.87-.244A26.943,26.943,0,0,1,218,95.7a6.618,6.618,0,0,0,1.5-2.826c0-.023-.105-.436-.112-.459,0,0-.333-1.189-1.162-1.472a1.322,1.322,0,0,0-1.426.141" transform="translate(96.765 0.735)" fill="#6c0"/>
    <path id="路径_1026" data-name="路径 1026" d="M217.361,99.1a30.6,30.6,0,0,1-3.44,2.621c-.554.364-1.914,1.147-1.914,1.147a1,1,0,0,0,0,1.011l.393.707c.376.322.905.858,1.517.79a2.987,2.987,0,0,0,2.038-.994l.767-.74a11.246,11.246,0,0,0,1.916-2.751l.066-.134a3.748,3.748,0,0,0-.027-1.743.648.648,0,0,0-.548-.515c-.151-.017-.527.01-.769.6" transform="translate(97.111 8.93)" fill="#6c0"/>
    <path id="路径_1027" data-name="路径 1027" d="M218.678,92.359l-.269.283a6.611,6.611,0,0,0-.068,1.352c.048.229,1.009,1.1,1.364,1.044s1.112-.356,3.279-.744c.7-.128,2.185-.322,2.185-.322a.362.362,0,0,1,.393.287c-.238.682-1.034,3.431-1.848,5.4-.207.056-3.671.719-3.671.719-1.863.327-2.745.664-4.254.808a2.071,2.071,0,0,0-.657.788c-.486.755.841,1.625,1.139,1.98l3.642-.854a24.76,24.76,0,0,1,3.072-.707c.366-.322-.074,1.6-.023,2.493-.05,1.06-.36,3.324-.6,5.306a2.622,2.622,0,0,1-.571,1.015,3.077,3.077,0,0,1-.624.589,2.923,2.923,0,0,1-.676.374,4.521,4.521,0,0,0,.972,1.344s.639.575,1.16.308a4.364,4.364,0,0,0,1.668-1.172c.215-.434.459-1.133.459-1.133l.759-8.459a8.505,8.505,0,0,1,.085-.984c.463-.149,2-.366,2.2-.4.637-.1,1.193-.134,1.856-.285,0,0,.941-.118.941-.905,0-.48-.926-1.49-1.032-1.676-.3-.506-2,.014-2.64.048.843-1.817,1.526-3.988,1.951-5.2.258-.748-.523-1.548-.55-1.619-.6-1.424-1.468-1.075-2.784-.837-3.1.566-6.7,1.131-6.853,1.162" transform="translate(100.466 0.908)" fill="#6c0"/>
    <path id="路径_1028" data-name="路径 1028" d="M221.082,93.321l-1.662.424c-.407.122-1.48.382-1.612.43l-.515.087-.043.124a4.153,4.153,0,0,0-.012,1.211,2.282,2.282,0,0,0,.571.783,1.661,1.661,0,0,0,1.147.3l2.6-.8c.478-.1,1.7-.19,2.106-.622l.366-.31.467-.618.058-.8c.085-.312-.19-.273-.273-.492l-.9.653a2.723,2.723,0,0,0-2.295-.372" transform="translate(102.779 3.108)" fill="#6c0"/>
    <path id="路径_1029" data-name="路径 1029" d="M216.5,97.232l-.273.608-.054.192a1.283,1.283,0,0,0,.031.881c.1.345.438.475.759.614l.473.234a3.774,3.774,0,0,0,1.472.579,1.9,1.9,0,0,0,1.441-.684,1.3,1.3,0,0,0,.273-.9c-.019-.2.2-.2-3.33-1.635l.023.01a.665.665,0,0,0-.814.1" transform="translate(101.618 7.374)" fill="#6c0"/>
    <path id="路径_1030" data-name="路径 1030" d="M221.353,98.561a22.07,22.07,0,0,1-2.476,1.486,16.433,16.433,0,0,1-2.5,1.118s-1.019.182-1.065.488a2.939,2.939,0,0,0,.955,1.738,3.654,3.654,0,0,0,1.827.467c.364-.052.351-.256,1.356-1.011l.934-1.067c.521-.589,1.075-.98,1.358-1.391s.01-1.089.054-1.234l.052-.5Z" transform="translate(100.769 9)" fill="#6c0"/>
    <path id="路径_1031" data-name="路径 1031" d="M222.848,96.341l-.087.031s-.306.511-.341.575a13.707,13.707,0,0,1-1.774,1.836,4.688,4.688,0,0,0-.976.868l-.021.1.043.093c.192.405.575,1.085,1.034,1.083.269-.006.337.1.546.014l.86-.318c.153-.035.389-.322,1.067-.748l1.3-.693c.4-.424,1.164-.949,1.091-1.333a1.57,1.57,0,0,0-.934-1.015l-.573-.322a1.7,1.7,0,0,0-1.236-.174" transform="translate(105.401 6.581)" fill="#6c0"/>
    <path id="路径_1032" data-name="路径 1032" d="M219.463,98.29s-.05.374-.066.655a12.025,12.025,0,0,0,2.96,4.436c.891.653,1.811,1.261,1.811,1.261a1.505,1.505,0,0,0,1.1-.132,6.475,6.475,0,0,0,1.681-.988c.887-1.017.132-1.335.151-1.43,0,0-.721-.246-1.294-.391a9.9,9.9,0,0,1-2.53-1.292c-1.521-.943-2.578-2.406-2.892-2.474a1.181,1.181,0,0,0-.922.356" transform="translate(105.131 8.316)" fill="#6c0"/>
    <path id="路径_1033" data-name="路径 1033" d="M228.907,90.671l-.2.225-1.139,2.367c-.252.573-1.676,2.884-2.15,3.706-.36.63-.943,1.443-1.331,2.028-.267.4.108.573.707,1a2.707,2.707,0,0,0,2.154.045,13.388,13.388,0,0,0,1.823-2.456,21.907,21.907,0,0,1,3.146-.819c.155,0-.395.686-1,1.286a18.641,18.641,0,0,1-4.659,3.192l-1.993,1.027,4.074-.548,1.794-.562c.01-.006.9-.38,1.408-.653a17.834,17.834,0,0,0,1.889-1.633,12.3,12.3,0,0,0,1.156-1.29c.2-.248.806-.835.8-1.24a5.112,5.112,0,0,0-.887-2.135c-.223-.374-1.114-.273-1.749.066-.976.207-1.594.614-2.443.755.279-.475,1.189-1.612,1.189-1.612a.75.75,0,0,0,.155-.517c0-.151-.308-.783-.312-.872-.01-.06-.368-.325-.883-.848-.938-.945-1.416-.535-1.55-.511" transform="translate(110.042 0.464)" fill="#6c0"/>
    <path id="路径_1034" data-name="路径 1034" d="M225.107,98.25l-1.327.413s-.777.176-.792.459a3,3,0,0,0,.827,1.718,6.8,6.8,0,0,0,1.232.676L229,99.779l6.4-1.92a7.49,7.49,0,0,1,1.4-.358c.405-.023.211.907-.043,1.645a3.184,3.184,0,0,1-2.005,2.319c-.316.285,1.34,1.563,1.813,2.046.438.461,1.118-.649,1.544-1.079a4.3,4.3,0,0,0,.893-1.54,26.3,26.3,0,0,0,1.108-3.824,2.992,2.992,0,0,0,.05-.422,2.676,2.676,0,0,0-1.025-1.592c-.221-.141-.643-.819-.978-.728-1.464.4-11.808,3.518-13.044,3.921" transform="translate(108.963 4.474)" fill="#6c0"/>
    <path id="路径_1035" data-name="路径 1035" d="M225.848,97.518a5.785,5.785,0,0,0-.945,2.274c-.174.63-.145.934-.36,2A8.767,8.767,0,0,0,224.2,104c.134,1.063,1.137,1.71,1.588,2.4a4.7,4.7,0,0,0,1.964,1.228,10.047,10.047,0,0,0,5.714.225,9.283,9.283,0,0,0,3.764-1.538s.815-1.728.488-2.648c-.116-.325-.969-2-1.12-1.619a2.877,2.877,0,0,1-1.271,1.232,11.268,11.268,0,0,1-2.307.976c-1.315.418-3.2.914-4.209.494-1.393-.575-1.683-1.083-1.666-2.133a34.512,34.512,0,0,1,1.034-5.2l.229-.947Z" transform="translate(110.246 6.769)" fill="#6c0"/>
    <path id="路径_1036" data-name="路径 1036" d="M227.447,96.241a2.735,2.735,0,0,1,0,2.1c-.225.676-.63,2.458-.63,2.458l2.8-1.079a4.6,4.6,0,0,1,.422-1.648c.244-.657-.141-1.1,0-2.2Z" transform="translate(113.044 6.138)" fill="#6c0"/>
    <path id="路径_1037" data-name="路径 1037" d="M237.767,92.329c-1.131.833-3.307,2.313-3.911,2.691a1.763,1.763,0,0,0-.622.556l-.033.2.12.277c.312.24,1.249,1.129,1.716,1.129a27.275,27.275,0,0,0,3.785-1.5l.649-.275c.523-.213,3.5-1.36,3.717-1.945.19-.523-1.271-1.86-2.191-2.462a2.116,2.116,0,0,0-.969-.215l-.7.215s-1.507,1.28-1.561,1.327" transform="translate(119.862 0.7)" fill="#6c0"/>
    <path id="路径_1038" data-name="路径 1038" d="M242.518,94.836c-.881.343-1.3.271-2.931.934-2.559,1.034-5.069,1.906-5.951,2.177-.887.215-1.278.318-2.02.531-.246.07-.36,1.1-.36,1.1a3.445,3.445,0,0,0,.182,1.054c.215.6,1.18.7,1.679.918.728.322,2.989-.961,4.573-1.65.587-.254,7.467-3.262,7.539-3.293l.151-.07.085-.978-.008-.043c0-.031-.327-.4-.854-1.147-.411-.573-1.9.341-2.084.463" transform="translate(117.784 4.331)" fill="#6c0"/>
    <path id="路径_1039" data-name="路径 1039" d="M235.79,93.428l-.01.188c-.029.339-.552,8.289-.577,10.125-.017,1.815-.471,7.5-.473,7.564l-.112.678.207.1a2.446,2.446,0,0,0,2.292-.033,2.419,2.419,0,0,0,.833-1.891l.558-8.8.537-1.356-.335-1.875.134-2.206.079-1.246a4.288,4.288,0,0,0,0-.926c-.068-.306-.695-.7-.695-.7l-.382-.306Z" transform="translate(121.375 2.784)" fill="#6c0"/>
    <path id="路径_1040" data-name="路径 1040" d="M238.211,96.376l-.083.136a57.445,57.445,0,0,1-3.667,5.176,11.884,11.884,0,0,1-1.484,1.581,9.131,9.131,0,0,1-.918.63c-.108.05-.124.411.07.622l.769.447a4.478,4.478,0,0,0,1.5.291,3.7,3.7,0,0,0,1.623-.81l.93-.926a21.364,21.364,0,0,0,2.584-4.455,8.519,8.519,0,0,0,.432-2.408l-.006-.291Z" transform="translate(118.559 6.662)" fill="#6c0"/>
    <path id="路径_1041" data-name="路径 1041" d="M235.932,100.1l2.929,2.6a1.137,1.137,0,0,0,.715.134,3.434,3.434,0,0,0,1.056-1.513c.356-1.236-.211-1.8-1.379-2.654l-1.761-.848-.918-.92Z" transform="translate(122.777 7.227)" fill="#6c0"/>
    <path id="路径_1042" data-name="路径 1042" d="M239.432,94.708l-1.42.2.041.645c0,.05.695,5.112.728,5.9.037.8.325,3.235.339,3.336l.006.058.041.366a1,1,0,0,0,1.195.449c.364-.105,1.335-.3,1.662-.829l.242-.407c.368-.537-.628-6.22-.835-7.351l-.021-.12c-.114-.626-.045-1.067-.645-1.418l-.9-.7Z" transform="translate(124.997 4.888)" fill="#6c0"/>
    <path id="路径_1043" data-name="路径 1043" d="M243.938,94.865l.064-.027L238.911,96.2l1.1,2.894.273-.083c.234-.072,2.284-.7,2.677-.91a1.994,1.994,0,0,1,1.978-.079,6.132,6.132,0,0,1,.672.858c.25.63-.331,1.158-.769,1.8a5.171,5.171,0,0,1-2.338,1.608c-.079.021-2.121.281-2.121.281l.025,1.294.521.672a4.977,4.977,0,0,0,1.858,1.149,3.134,3.134,0,0,0,1.84-.5l1.06-.637c1.821-1.023,3.028-4.3,3.208-5.519s-1.11-2.894-2.456-3.777a2.438,2.438,0,0,0-2.5-.393" transform="translate(125.956 4.867)" fill="#6c0"/>
    <path id="路径_1044" data-name="路径 1044" d="M245.028,94.159l-.436.606.06.6.965,2.576c.2.509,1.246,1.712,1.712,1.712.449,0,2.507-1.063,2.282-1.325-.025-.108-1.495-3.892-1.495-3.892l-.041-.054a1.936,1.936,0,0,0-1.269-.67,7.186,7.186,0,0,0-1.778.453" transform="translate(132.019 3.819)" fill="#6c0"/>
    <path id="路径_1045" data-name="路径 1045" d="M253.255,92.635l.066.314-1.451,2.063a9.332,9.332,0,0,1-1.621,1.848l-.083.074-.387,1.108.506.794a3.662,3.662,0,0,0,1.7.478c.75-.1,2.512-2.038,2.888-2.295,1.232-.843,1.951-1.5,1.92-2.127,0,0,.494-1.071-1.73-1.9a5.212,5.212,0,0,0-1.813-.356" transform="translate(137.555 2.674)" fill="#6c0"/>
    <path id="路径_1046" data-name="路径 1046" d="M261.906,96.451l-1.668.281c-.494.033-6.755.837-7.471.99-.688.151-6.638.856-6.7.864l-1.2.153a2.792,2.792,0,0,0-1.083.473c-.31.325-.153.914.008,1.486l.072.273c.153.626.835,1.195,1.189,1.172l1.273.1c.918-.252,5.2-1.3,6-1.4l6.849-.788,4.453-.118c.093-.014,1.621.236,1.728-.358a3.929,3.929,0,0,0-.256-1.831l-.527-.628a2.754,2.754,0,0,0-1.608-1.139Z" transform="translate(130.971 6.254)" fill="#6c0"/>
    <path id="路径_1047" data-name="路径 1047" d="M248.879,93.407l-.651-.12.068.98c0,.019.089,1.019.066,2.059a12.21,12.21,0,0,1-.027,2.214c-.052.36-.116,1.362-.122,1.712,0,.99-.014,1.052.008,1.552.037.713-.395,2.634-.475,6.373-.037,1.809-.335,4.1-.351,4.223a2.048,2.048,0,0,0,.211,1.087l.358.471,1.1.42a2.017,2.017,0,0,0,1.263.021c.746-.573.721-1.825.777-2.094.054-.285.418-3.183.509-5.466l0-5.792-.041-.885.01-1.137-.064-1.145.07-1.707-.083-.442.014-1.077c-.029-.136-.411-2.317-1.294-2.547-.831-.221-1.211,1.22-1.346,1.3" transform="translate(134.995 2.088)" fill="#6c0"/>
    <path id="路径_1048" data-name="路径 1048" d="M225.969,99.677a17.7,17.7,0,0,1,1.968-.761c1.185-.407,2.782-1.079,4.076-1.478a2.718,2.718,0,0,1,2.2.116,1.145,1.145,0,0,1,.372,1.2s.279.5.087.568-.715.384-1.35.707a16.887,16.887,0,0,1-2.013.529c-.242.089-1.383.318-1.383.318a17.466,17.466,0,0,0-1.8.531c-.7.316.074.256-.887.389-.322.046-1.3-.246-1.306-.438a1.977,1.977,0,0,0-.353-.626Z" transform="translate(111.728 7.626)" fill="#6c0"/>
    <path id="路径_1049" data-name="路径 1049" d="M156.162,95.367c-.5.428-1.346.531-5.732,1.3a3.7,3.7,0,0,0-.866.36,8.629,8.629,0,0,0-3.173,1.034c-.2.116-.457.693-.537,1.757.291.351.444.325.821.325,2.1,0,5.1-1.052,5.461-.988,1.364.3,2,2.406,2,3.494a7.228,7.228,0,0,1-.161.864c-.169.457-.992.837-1.982.928-4.721.43-6.931.8-7.477,1.18a1.745,1.745,0,0,0-.269.889c0,1.112,2.365,1.4,2.766,1.4,1.464,0,2.2-.779,2.733-.779.643,0,1.958,1.552,1.958,3.3,0,1.145-.67,3.02-3.591,3.02a13.918,13.918,0,0,1-6.284-2.189s.07-.467-.9-1.156a10.671,10.671,0,0,1-.926-4.05c0-3.357,1.662-5.59,1.887-6.89,0,0-.792-1.112-1.1-1.523a1.636,1.636,0,0,1-.356-1.261c0-2.619,1.718-3.109,1.8-3.109l.6.01a7.285,7.285,0,0,0,1.441-.825l.941-.064c.556-.07,6.842-1.693,8.1-1.693,1,0,1.393.163,1.788.773a10.474,10.474,0,0,1,1.333,3.059,1.868,1.868,0,0,1-.267.841" transform="translate(20.403 0.604)" fill="#6c0"/>
    <path id="路径_1050" data-name="路径 1050" d="M151.5,105.518a2.358,2.358,0,0,0-.337.984c-.045.4,1.422,1.038,2.749,1.106,3.888.2,3.39-1.594,4.527-1.029.742.368,1.4,2.247,1.4,3.343,0,2.514-2.447,3.225-4.62,3.225a13.774,13.774,0,0,1-5.645-1.391s-2.29-2.855-2.29-4.907c0-4.713,2.5-9.9,2.627-10.148,0,0,.207-1.354.327-2.233.139-.99.806-1.195,1.366-1.815a82.4,82.4,0,0,1,10.633-1.9c.9-.1,2.011,1.145,2.613,3.028.107.331-.068,1.648-.517,1.786-.267.083-.978.165-6.718.763a6.443,6.443,0,0,0-2.427.564,6.69,6.69,0,0,0-1.461,2.276c-.128.5.128.771.771.7a17.084,17.084,0,0,0,5.3-1.643c1.081,0,2.1,1.437,2.408,3.012a2.024,2.024,0,0,1-.362,1.875,11.58,11.58,0,0,1-3.793,1.224,4.866,4.866,0,0,1-1.379.083c-.13-.012-.442.207-.626.234-2.189.306-4.159.488-4.546.864" transform="translate(28.176 0.659)" fill="#6c0"/>
    <path id="路径_1051" data-name="路径 1051" d="M191.124,93.862c0,1.178-.339,1.951-.761,2.113-1.848.707-8.056,1.59-10.921,2.545a3.9,3.9,0,0,0-1.453,2.342c0,.312.362.418.9.347,4.138-.546,4.856-.9,6.584-1.676a1.414,1.414,0,0,1,.945.31,4.567,4.567,0,0,1,1,3.1,2.052,2.052,0,0,1-2.03,2.156c-2.144.325-7.07,1.054-8.515,1.226a2.356,2.356,0,0,0-1.209.368c-.649.934-.393,2.9,4.027,1.929,1.856-.405,2.224-1.087,3.274-1.087a1.268,1.268,0,0,1,.273.035,3.384,3.384,0,0,1,1.1,2.919,3.233,3.233,0,0,1-1.941,3.134,4.537,4.537,0,0,1-.645.159,9.367,9.367,0,0,1-.932.422,6.594,6.594,0,0,1-1.643.25c-3.035,0-7.861-1.4-7.861-7,0-5.081,3.45-8.635,4.368-11.994a3.907,3.907,0,0,0,.459-.581c.066-.579.589-1.933,1.24-2A73.883,73.883,0,0,0,188.4,90.193a1.062,1.062,0,0,1,.978.12,4.833,4.833,0,0,1,1.749,3.549" transform="translate(53.817 0)" fill="#6c0"/>
    <path id="路径_1052" data-name="路径 1052" d="M147.807,108.335c-.9-1.009-3.8-2.607-4.8-3.626.43-.488,2.758-3.766,2.758-6.359,0-3.663-2.654-8.05-6.226-8.05,0,0-1.042.019-2.3.118-.232.356-.992.275-.992.275-1.255.562-2.419,1.507-2.419,4.537,0,.542.761,1.1,1.218,1.526a15.928,15.928,0,0,1-.868,3.785c-.161.411-1.321.573-1.321.573l-.61.79c-.395,2.35.008,2.631.821,3.688.108,1.24-.378,3.39-.378,4.612,0,.881.337.786.159,1.689a1.1,1.1,0,0,1,.207.36,2.727,2.727,0,0,0,2.394,1.755,1.391,1.391,0,0,0,1.488-1.162c0-1.042-.269-4.231-.244-4.523a3.225,3.225,0,0,1,.5-1.559c.686,0,3.742,2.772,6.348,5.43a2.948,2.948,0,0,0,1.871.812c1.586,0,2.239-1.79,2.694-2.2a2.74,2.74,0,0,0-.3-2.468M138.7,101.28a1.015,1.015,0,0,1-.664-.132s.8-4.707.874-5.722a1.994,1.994,0,0,1,2.636,1.8c0,1.3-.6,2.846-2.847,4.05" transform="translate(11.961 0.185)" fill="#6c0"/>
    <path id="路径_1053" data-name="路径 1053" d="M188.388,91.5l-1.141-.331-.587-.3a33.227,33.227,0,0,0-6.439-.232,9.068,9.068,0,0,1-1.362-.256,9.206,9.206,0,0,1-1.732.779,3.723,3.723,0,0,1-.794-.24,13.287,13.287,0,0,0-4.2,1.228,2.8,2.8,0,0,0-.953,1.118l-.019.041c-.035.085-.178.229-.2,0a4.961,4.961,0,0,0-.1-.626,2.938,2.938,0,0,0-2.429-1.9c-.329,0-1.017.368-1.079.761-.081.494-.134,2.718-.368,4.874a35.376,35.376,0,0,1-.434,5.633c-.093.019-.38.124-.471-.01-1.019-1.538-3.688-4.2-3.915-5.958-.209-1.627.058-4.186-.779-4.847a6.726,6.726,0,0,0-2.321-.7,1.77,1.77,0,0,0-1.453.68l-.066.494-.463.7a12.542,12.542,0,0,0-.269,2.921l.389,2a1.486,1.486,0,0,1-.353.862l.1,1.542c0,1.738-1.59,7.706-1.59,9.507,0,4.043,3.535,3.711,3.737,3.539a3.7,3.7,0,0,0,.783-1.325c.238-2.388.482-6.462,1.127-7.659.13-.244.469-.364.641-.2a9.885,9.885,0,0,1,1.269,1.844c.628.893,2.46,3.113,2.8,5.112.031.165,0,.571.052.883a3.551,3.551,0,0,0,1.329,2.237,3.38,3.38,0,0,0,1.925.217c.672-.114,1.894-.244,1.894-3.4a23.831,23.831,0,0,0-.31-3.264,91.194,91.194,0,0,0,.478-9.339,6.721,6.721,0,0,1-.331-.755,7.642,7.642,0,0,0,.219-1.038v0c.019-.128.083-.223.136-.116a2.157,2.157,0,0,0,.132.238,1.865,1.865,0,0,0,1.559.773c1.122,0,2.59-1.313,3.605-1.075.141.033.289-.215,1.087-.283a24.238,24.238,0,0,1-.105,3c-.062.676-.37.825-1.623.825a1.015,1.015,0,0,0-.881.657,12.7,12.7,0,0,0-.488,2.615,3.278,3.278,0,0,0,2.445,2.619c.083.411-.318,3.6-.318,5.207a4.5,4.5,0,0,0,.453,2.4,4.317,4.317,0,0,0,2.1.922,2.074,2.074,0,0,0,1.523-.639,3.265,3.265,0,0,0,.283-1.373c.083-3.667.5-7.533.955-7.669a20.306,20.306,0,0,0,6.518-3.059,5.959,5.959,0,0,0,2.536-4.221,7.566,7.566,0,0,0-2.5-5.412m-6.474,7.34c-.277,0-.451-.089-.523-.316a14.946,14.946,0,0,1-.378-3.454c.959-.2,5.176.06,5.176,1.147,0,.98-2.836,2.627-4.275,2.623" transform="translate(36.788 0.272)" fill="#6c0"/>
    <path id="路径_1054" data-name="路径 1054" d="M143.571,104.751a8.739,8.739,0,0,0-1.1-3.363,2.582,2.582,0,0,0-2.131-.817c-.56,0-9.978,1.451-11.159,2.181-.564.351-.777,1.151-.777,2.313a2.266,2.266,0,0,0,1.381,2.354c.688,0,5.47-.926,7.188-1.246.353-.066.492.081.488.223a1.918,1.918,0,0,1-.306,1.114A5.841,5.841,0,0,1,134.614,109c-1.354-.26-2.5.893-3.859.221-.587-.008-1.433.418-1.836-.238-1.366-.306-2.826-.4-3.919-1.306a1.773,1.773,0,0,1-.523-1.414c0-1.478,2.21-5.277,5.964-8.81.779-.734,3.578-2.784,4.81-2.784.823,0,1.11,1.838,1.765,2.536a1.489,1.489,0,0,0,1.18.043c.724-.314,1.29-.7,1.29-1.55a6.934,6.934,0,0,0-1.366-4.2,6.117,6.117,0,0,0-2.977-1.273c-1.575,0-2.319.936-2.9.959a19.819,19.819,0,0,0-3.923,3.181,1.127,1.127,0,0,1-.418.229,3.283,3.283,0,0,1-.382.854c-.087.054-.908.6-.908.6-1.077,1.042-5.732,6.861-5.732,9.036a10.7,10.7,0,0,0,1.858,5.358c1.7,1.59,4.864,2.708,8.428,2.708a12.885,12.885,0,0,0,5.519-1.368c.172-.1.287-.085.269.1-.023.211-.054.5-.068.732s-.13,1.466-.13,2.29a3.405,3.405,0,0,0,.792,2.574,5.438,5.438,0,0,0,2.2.48,1.962,1.962,0,0,0,1.643-1.885c0-.755-.085-1.765-.07-2.009.347-6.458,2.251-8.236,2.251-9.3" transform="translate(0 0.096)" fill="#6c0"/>
    <path id="路径_1055" data-name="路径 1055" d="M235.951,93.74c-.349-1.563-1.555-3-2.574-3.225-.918.207-8.461,1.654-13.416,2.3-.684.089-1.528.12-1.528.12l-.564.289a3.661,3.661,0,0,0-1.461.43,4.362,4.362,0,0,0-1.736,2.807l.1,1.3c-1.534,3.041-2.565,5.488-2.565,8.8,0,.064,0,.136.008.211,0,.246-.025.366-.093.3a3.353,3.353,0,0,0-.279-.38c-.591-.676-.788-.765-1.06-.765-.814,0-1.428,1.528-4.167,1.528-2.464,0-7.088-2.582-7.088-3.928,0-2.966,3.946-6.669,6.884-6.669.515,0,.647.147.647.5,0,.585-.438,1.5-.438,2.084,0,1.416,2.129,2.433,3.248,2.433.322,0,2.619-.845,2.619-4.182,0-1.962-1.43-5.193-3.779-5.193a20.908,20.908,0,0,0-10.348,3.634,2.108,2.108,0,0,1-.415.608,11.725,11.725,0,0,1-.974.726,13.254,13.254,0,0,0-1.464,2.551c-.056.128-.122.3-.186.467l0,0c-.126.339-.335.453-.382.254-.017-.17-.037-.389-.06-.668a22.012,22.012,0,0,0-.395-2.956s-.331-.9-.418-1.306c-.025-.116-.039-.608-.039-.608a9.054,9.054,0,0,0-2.538-4.461c-1.071-.393-1.34-.494-1.807-.2-1.832,1.17-3.983,4.728-7.291,10.836a5.992,5.992,0,0,1-1.28,1.046,4.553,4.553,0,0,1-.056,1.7c-.657,2.1-2.563,4.736-2.476,5.28l.105.641-.074.759a3.772,3.772,0,0,0,2.768,2.253,1.188,1.188,0,0,0,.292-.031c1.267-1.122,1.631-3.307,2.76-5.143.126-.2.167-.238.471-.354a16.311,16.311,0,0,1,2.842-.6,3.793,3.793,0,0,1,1.209.062l.56-.186c.529-.031.814.128.814.554a30.255,30.255,0,0,0,.182,4.387c.221.994,1.143,1.674,2.968,1.815a1.889,1.889,0,0,0,1.174-1.114,11.517,11.517,0,0,0,.138-3.539c0-1.716.054-2.737.1-3.3.041-.188.176-.244.234-.068l0,0a6.073,6.073,0,0,0,.9,1.656,16.535,16.535,0,0,0,11.5,6.224,4.345,4.345,0,0,0,4.546-3.059c.182-.457.308-.86.374-1.087.043-.062.122-.037.186.072v0a6.3,6.3,0,0,0,.571.841c1.85,2.326,4.473,3.049,7.783,2.549,3.686-.556,4.188-.934,4.5-1.337a4.959,4.959,0,0,0,.779-2.468,2.1,2.1,0,0,0-.376-1.8c-.571-.573-2.34.006-4.672.4-3.09.523-4.389-.781-4.353-1.182.023-.24.143-.728.457-.808a3.45,3.45,0,0,1,1.228.12,23.533,23.533,0,0,1,3.126-.331c.475,0,1.034.07,1.222.079,0,0,2.032-.151,3.235-.389a2,2,0,0,0,1.472-1.205,4,4,0,0,0-.176-2.359c-.852-1.753-1.86-1.951-2.077-1.906a20.723,20.723,0,0,1-6.117.711.658.658,0,0,1-.537-.7,2.976,2.976,0,0,1,1.887-2.142c2.317-.444,9.189-1.131,11.713-1.257,1.579-.079,3.241.4,3.558-.134a4.051,4.051,0,0,0,.1-2.309m-45.426,7.144c-.186.366-1.288.639-3.144.664-.083,0-.174-.163-.13-.269a35.843,35.843,0,0,1,2.454-5.067.825.825,0,0,1,.653.25c.38.492.4,3.959.167,4.422" transform="translate(61.564 0.273)" fill="#6c0"/>
  </g>
</svg>
